<svg version="1.1" xmlns="http://www.w3.org/2000/svg" viewBox="0 0 4199.505963428662 4816.644292493899" width="4199.505963428662" height="4816.644292493899">
  <!-- svg-source:excalidraw -->
  
  <defs>
    <style class="style-fonts">
      @font-face {
        font-family: "Virgil";
        src: url("https://excalidraw.com/Virgil.woff2");
      }
      @font-face {
        font-family: "Cascadia";
        src: url("https://excalidraw.com/Cascadia.woff2");
      }
    </style>
  </defs>
  <rect x="0" y="0" width="4199.505963428662" height="4816.644292493899" fill="#ffffff"></rect><g transform="translate(2010.62501104771 188.8053270406592) rotate(0 96 23)"><text x="0" y="32" font-family="Virgil, Segoe UI Emoji" font-size="36px" fill="#000000" text-anchor="start" style="white-space: pre;" direction="ltr">Session ID</text></g><g transform="translate(2036.5054635113813 279.3753611499392) rotate(0 82.5 23)"><text x="0" y="32" font-family="Virgil, Segoe UI Emoji" font-size="36px" fill="#000000" text-anchor="start" style="white-space: pre;" direction="ltr">Username</text></g><g stroke-linecap="round" transform="translate(1950.5819131343067 149.26546147076138) rotate(0 174.8755226727864 131.34427668556918)"><path d="M32 0 M32 0 C138.27 1.92, 243.1 0.7, 317.75 0 M32 0 C140.1 0.41, 247.95 0.46, 317.75 0 M317.75 0 C337.56 -1.62, 351.12 12.19, 349.75 32 M317.75 0 C340.58 1.46, 350.95 12.33, 349.75 32 M349.75 32 C349.83 95.24, 353.1 156.91, 349.75 230.69 M349.75 32 C350 72.08, 350.15 112.21, 349.75 230.69 M349.75 230.69 C347.96 252.88, 337.55 262.66, 317.75 262.69 M349.75 230.69 C348.81 253.14, 337.26 260.43, 317.75 262.69 M317.75 262.69 C205.08 261.23, 94.31 262.72, 32 262.69 M317.75 262.69 C220.07 265.42, 121.14 265.49, 32 262.69 M32 262.69 C9.61 262.4, 0.77 251.69, 0 230.69 M32 262.69 C12.84 264.13, 2.19 250.54, 0 230.69 M0 230.69 C-2.26 183.49, 0.14 134.66, 0 32 M0 230.69 C-0.02 182.81, 1.66 136.67, 0 32 M0 32 C-1.35 10.49, 10.37 0.65, 32 0 M0 32 C-1.06 11.29, 10.85 -0.51, 32 0" stroke="#000000" stroke-width="1" fill="none"></path></g><g stroke-linecap="round" transform="translate(3100.407238175975 185.29132021880326) rotate(0 243.9250852731999 157.61313202268298)"><path d="M32 0 M32 0 C191.72 1.13, 350.3 -0.02, 455.85 0 M455.85 0 C479.06 -1.06, 487.56 11.43, 487.85 32 M487.85 32 C491.33 102.19, 488.79 175.13, 487.85 283.23 M487.85 283.23 C488.95 303.09, 477.49 316.16, 455.85 315.23 M455.85 315.23 C350.62 313.11, 244.6 314.88, 32 315.23 M32 315.23 C12.62 313.88, -0.18 304.27, 0 283.23 M0 283.23 C1.07 199.28, 0.49 117.32, 0 32 M0 32 C-1.18 12.56, 12.43 -0.84, 32 0" stroke="#000000" stroke-width="1.5" fill="none" stroke-dasharray="8 9"></path></g><g stroke-linecap="round"><g transform="translate(2277.8167967623535 279.859199432413) rotate(0 469.5298973511513 -0.9452452224101506)"><path d="M0.17 -0.9 C156.63 -1.01, 782.37 -0.99, 938.89 -0.99" stroke="#000000" stroke-width="1.5" fill="none" stroke-dasharray="8 9"></path></g><g transform="translate(2277.8167967623535 279.859199432413) rotate(0 469.5298973511513 -0.9452452224101506)"><path d="M909.19 7.96 C920.38 5.35, 929.31 2.25, 939.76 0.88" stroke="#000000" stroke-width="1.5" fill="none"></path></g><g transform="translate(2277.8167967623535 279.859199432413) rotate(0 469.5298973511513 -0.9452452224101506)"><path d="M909.19 -12.56 C920.32 -8.77, 929.25 -5.47, 939.76 0.88" stroke="#000000" stroke-width="1.5" fill="none"></path></g></g><mask></mask><g transform="translate(2633.572151899267 161.78593297962783) rotate(0 82.5 45.5)"><text x="0" y="32.5" font-family="Virgil, Segoe UI Emoji" font-size="36px" fill="#000000" text-anchor="start" style="white-space: pre;" direction="ltr">Sess ID?</text><text x="0" y="78" font-family="Virgil, Segoe UI Emoji" font-size="36px" fill="#000000" text-anchor="start" style="white-space: pre;" direction="ltr">Username</text></g><g stroke-linecap="round"><g transform="translate(3277.5343770205145 381.93246588519804) rotate(0 -471.14074137989763 75.5101206490647)"><path d="M1.16 -1.08 C-156.08 24.38, -785.73 126.75, -943.44 152.11" stroke="#000000" stroke-width="1.5" fill="none" stroke-dasharray="8 9"></path></g><g transform="translate(3277.5343770205145 381.93246588519804) rotate(0 -471.14074137989763 75.5101206490647)"><path d="M-919.06 138.7 C-924.4 140.59, -934.03 145.05, -941.66 151.02" stroke="#000000" stroke-width="1.5" fill="none"></path></g><g transform="translate(3277.5343770205145 381.93246588519804) rotate(0 -471.14074137989763 75.5101206490647)"><path d="M-915.78 158.96 C-921.99 154.77, -932.61 153.13, -941.66 151.02" stroke="#000000" stroke-width="1.5" fill="none"></path></g></g><mask></mask><g transform="translate(2731.1421860085466 353.41199437633156) rotate(0 -0.7505387239175434 0.7505387239175434)" stroke="none"><path fill="#000000" d="M 2.12,-0.66 Q 2.12,-0.66 2.15,-0.13 2.18,0.40 1.96,0.88 1.74,1.36 1.32,1.69 0.91,2.02 0.38,2.12 -0.13,2.21 -0.64,2.05 -1.14,1.90 -1.52,1.52 -1.90,1.14 -2.05,0.64 -2.21,0.13 -2.12,-0.38 -2.02,-0.91 -1.69,-1.32 -1.36,-1.74 -0.88,-1.96 -0.39,-2.18 0.13,-2.15 0.66,-2.11 1.11,-1.84 1.57,-1.56 1.84,-1.11 L 2.12,-0.66 Z"></path></g><g transform="translate(2632.0710744514317 319.3990650023107) rotate(0 143.5 68.5)"><text x="0" y="31.666666666666664" font-family="Virgil, Segoe UI Emoji" font-size="36px" fill="#000000" text-anchor="start" style="white-space: pre;" direction="ltr">Sess ID</text><text x="0" y="77.33333333333333" font-family="Virgil, Segoe UI Emoji" font-size="36px" fill="#000000" text-anchor="start" style="white-space: pre;" direction="ltr">Other Playerss</text><text x="0" y="123" font-family="Virgil, Segoe UI Emoji" font-size="36px" fill="#000000" text-anchor="start" style="white-space: pre;" direction="ltr">Local Player ID</text></g><g transform="translate(1997.1153140171941 449.99280296396245) rotate(0 161 114)"><text x="0" y="31.6" font-family="Virgil, Segoe UI Emoji" font-size="36px" fill="#000000" text-anchor="start" style="white-space: pre;" direction="ltr">GameState {</text><text x="0" y="77.2" font-family="Virgil, Segoe UI Emoji" font-size="36px" fill="#000000" text-anchor="start" style="white-space: pre;" direction="ltr">me = LocalPlayer</text><text x="0" y="122.80000000000001" font-family="Virgil, Segoe UI Emoji" font-size="36px" fill="#000000" text-anchor="start" style="white-space: pre;" direction="ltr">other = Player[]</text><text x="0" y="168.4" font-family="Virgil, Segoe UI Emoji" font-size="36px" fill="#000000" text-anchor="start" style="white-space: pre;" direction="ltr">sessionId = String</text><text x="0" y="214" font-family="Virgil, Segoe UI Emoji" font-size="36px" fill="#000000" text-anchor="start" style="white-space: pre;" direction="ltr">}</text></g><g transform="translate(3250.514982959483 254.8527347454024) rotate(0 116 45.5)"><text x="0" y="32.5" font-family="Virgil, Segoe UI Emoji" font-size="36px" fill="#000000" text-anchor="start" style="white-space: pre;" direction="ltr">Erstellt oder</text><text x="0" y="78" font-family="Virgil, Segoe UI Emoji" font-size="36px" fill="#000000" text-anchor="start" style="white-space: pre;" direction="ltr">joint session</text></g><g stroke-linecap="round" transform="translate(1915.0269682747953 79.62641732761062) rotate(0 927.7370197676632 385.0376764122441)"><path d="M32 0 M32 0 C442.38 1.92, 851.34 1.05, 1823.47 0 M1823.47 0 C1843.33 -1.74, 1853.56 12.18, 1855.47 32 M1855.47 32 C1854.66 312.13, 1854.97 593.46, 1855.47 738.08 M1855.47 738.08 C1856.51 758.75, 1843.6 769.93, 1823.47 770.08 M1823.47 770.08 C1151.22 769.99, 480.47 770.57, 32 770.08 M32 770.08 C10.07 771.49, -1.58 760.84, 0 738.08 M0 738.08 C1.03 540.38, 1.76 342.88, 0 32 M0 32 C1.58 8.82, 10.37 -0.75, 32 0" stroke="#000000" stroke-width="1.5" fill="none" stroke-dasharray="8 9"></path></g><g transform="translate(2532.8032958888693 10) rotate(0 87.5 23)"><text x="0" y="32" font-family="Virgil, Segoe UI Emoji" font-size="36px" fill="#000000" text-anchor="start" style="white-space: pre;" direction="ltr">Login Flow</text></g><g transform="translate(1289.7061615002199 1241.8278647609848) rotate(0 235 182)"><text x="0" y="32.5" font-family="Virgil, Segoe UI Emoji" font-size="36px" fill="#000000" text-anchor="start" style="white-space: pre;" direction="ltr">[REQ] Join</text><text x="0" y="78" font-family="Virgil, Segoe UI Emoji" font-size="36px" fill="#000000" text-anchor="start" style="white-space: pre;" direction="ltr">{</text><text x="0" y="123.5" font-family="Virgil, Segoe UI Emoji" font-size="36px" fill="#000000" text-anchor="start" style="white-space: pre;" direction="ltr">    username: "ich",</text><text x="0" y="169" font-family="Virgil, Segoe UI Emoji" font-size="36px" fill="#000000" text-anchor="start" style="white-space: pre;" direction="ltr">    sessionsId?: "abc123id"</text><text x="0" y="214.5" font-family="Virgil, Segoe UI Emoji" font-size="36px" fill="#000000" text-anchor="start" style="white-space: pre;" direction="ltr">}</text><text x="0" y="260" font-family="Virgil, Segoe UI Emoji" font-size="36px" fill="#000000" text-anchor="start" style="white-space: pre;" direction="ltr"></text><text x="0" y="305.5" font-family="Virgil, Segoe UI Emoji" font-size="36px" fill="#000000" text-anchor="start" style="white-space: pre;" direction="ltr"></text><text x="0" y="351" font-family="Virgil, Segoe UI Emoji" font-size="36px" fill="#000000" text-anchor="start" style="white-space: pre;" direction="ltr"></text></g><g stroke-linecap="round" transform="translate(3583.0059634286617 1298.9481841835166) rotate(0 131.25 212.4999999999999)"><path d="M32 0 M32 0 C109.23 0.14, 189.29 1.26, 230.5 0 M230.5 0 C250.63 0.5, 261.09 11.44, 262.5 32 M262.5 32 C264.18 115.47, 264.13 199.57, 262.5 393 M262.5 393 C261.58 414.28, 250.29 423.71, 230.5 425 M230.5 425 C160.26 425.3, 87.98 424.81, 32 425 M32 425 C10.2 425.12, 0.21 414.98, 0 393 M0 393 C-2.18 282.35, -1.82 170.79, 0 32 M0 32 C-0.16 11.98, 11.03 -0.13, 32 0" stroke="#000000" stroke-width="1.5" fill="none" stroke-dasharray="1.5 7"></path></g><g stroke-linecap="round" transform="translate(3945.5059634286617 1211.4481841835168) rotate(0 70 56.249999999999886)"><path d="M28.12 0 M28.12 0 C46.67 -0.28, 66.75 -1.22, 111.88 0 M111.88 0 C130.24 1.97, 139.15 10.74, 140 28.12 M140 28.12 C140.26 41.46, 141.77 51.99, 140 84.37 M140 84.37 C138.97 103.11, 130.75 112.13, 111.88 112.5 M111.88 112.5 C84.49 112.26, 52.8 112.68, 28.12 112.5 M28.12 112.5 C7.52 112.71, 1.89 103.67, 0 84.37 M0 84.37 C1 67.15, -1.66 48.64, 0 28.12 M0 28.12 C0.74 9.75, 7.84 -1.31, 28.12 0" stroke="#000000" stroke-width="1.5" fill="none" stroke-dasharray="1.5 7"></path></g><g stroke-linecap="round" transform="translate(3958.5059634286617 1407.1981841835163) rotate(0 79 64)"><path d="M32 0 M32 0 C65.84 -0.82, 101.09 -1.51, 126 0 M126 0 C146 -1.11, 158.57 10.95, 158 32 M158 32 C158.72 53, 157.23 73.76, 158 96 M158 96 C159.23 117.21, 146.59 126.98, 126 128 M126 128 C90.87 129.32, 57.73 127.71, 32 128 M32 128 C9.74 129.03, 0.78 115.93, 0 96 M0 96 C0.52 78.68, 0.42 62.51, 0 32 M0 32 C1.52 10.91, 12.59 -1.29, 32 0" stroke="#000000" stroke-width="1.5" fill="none" stroke-dasharray="1.5 7"></path></g><g stroke-linecap="round" transform="translate(3984.5059634286617 1603.1981841835163) rotate(0 74 75)"><path d="M32 0 M32 0 C57.15 -1.54, 79.97 -0.63, 116 0 M116 0 C136.62 -1.53, 149.09 9.33, 148 32 M148 32 C147.59 57.78, 145.78 81.17, 148 118 M148 118 C149.01 140.02, 135.72 148.49, 116 150 M116 150 C92.47 150.41, 69.71 150.1, 32 150 M32 150 C9.15 150.07, 1.04 138.9, 0 118 M0 118 C-1.91 87.31, -0.38 53.71, 0 32 M0 32 C-1.34 12.14, 9.79 1.57, 32 0" stroke="#000000" stroke-width="1.5" fill="none" stroke-dasharray="1.5 7"></path></g><g transform="translate(3934.5059634286617 1115.1981841835166) rotate(0 127.5 23)"><text x="0" y="32" font-family="Virgil, Segoe UI Emoji" font-size="36px" fill="#000000" text-anchor="start" style="white-space: pre;" direction="ltr">Session Server</text></g><g transform="translate(3538.5059634286617 1207.1981841835166) rotate(0 167 23)"><text x="0" y="32" font-family="Virgil, Segoe UI Emoji" font-size="36px" fill="#000000" text-anchor="start" style="white-space: pre;" direction="ltr">Coordinator Server</text></g><g transform="translate(418.3627776520375 1651.5982591593613) rotate(0 140 114)"><text x="0" y="31.6" font-family="Virgil, Segoe UI Emoji" font-size="36px" fill="#000000" text-anchor="start" style="white-space: pre;" direction="ltr">Player {</text><text x="0" y="77.2" font-family="Virgil, Segoe UI Emoji" font-size="36px" fill="#000000" text-anchor="start" style="white-space: pre;" direction="ltr">    id: string</text><text x="0" y="122.80000000000001" font-family="Virgil, Segoe UI Emoji" font-size="36px" fill="#000000" text-anchor="start" style="white-space: pre;" direction="ltr">    name: string</text><text x="0" y="168.4" font-family="Virgil, Segoe UI Emoji" font-size="36px" fill="#000000" text-anchor="start" style="white-space: pre;" direction="ltr">    points: int</text><text x="0" y="214" font-family="Virgil, Segoe UI Emoji" font-size="36px" fill="#000000" text-anchor="start" style="white-space: pre;" direction="ltr">}</text></g><g stroke-linecap="round"><g transform="translate(1796.1726300953299 1290.3648508501828) rotate(0 885.6232646259162 83.71786634306591)"><path d="M-0.29 -1.15 C295.06 26.84, 1476.35 139.4, 1771.53 167.66 M1.76 0.86 C297.1 28.97, 1476.46 140.47, 1771.21 168.58" stroke="#000000" stroke-width="1" fill="none"></path></g><g transform="translate(1796.1726300953299 1290.3648508501828) rotate(0 885.6232646259162 83.71786634306591)"><path d="M1740.27 178.13 C1747.7 175.04, 1756.44 174.07, 1771.15 168.5 M1742.93 177.09 C1751.96 173.19, 1760.77 170.77, 1770.48 169.52" stroke="#000000" stroke-width="1" fill="none"></path></g><g transform="translate(1796.1726300953299 1290.3648508501828) rotate(0 885.6232646259162 83.71786634306591)"><path d="M1742.21 157.71 C1749.1 159.85, 1757.34 164.13, 1771.15 168.5 M1744.87 156.66 C1753.34 159.44, 1761.52 163.68, 1770.48 169.52" stroke="#000000" stroke-width="1" fill="none"></path></g></g><mask></mask><g stroke-linecap="round"><g transform="translate(3860.5059634286617 1349.1981841835163) rotate(0 38.119917393475816 -35.06749953106032)"><path d="M-0.77 0.62 C12.15 -11.03, 63.81 -58.91, 77.01 -70.76" stroke="#000000" stroke-width="1.5" fill="none" stroke-dasharray="1.5 7"></path></g><g transform="translate(3860.5059634286617 1349.1981841835163) rotate(0 38.119917393475816 -35.06749953106032)"><path d="M64.15 -45.81 C65.64 -50.2, 69.76 -57.01, 76.13 -72.45" stroke="#000000" stroke-width="1.5" fill="none" stroke-dasharray="1.5 5"></path></g><g transform="translate(3860.5059634286617 1349.1981841835163) rotate(0 38.119917393475816 -35.06749953106032)"><path d="M50.31 -60.97 C55.27 -61.35, 62.97 -64.24, 76.13 -72.45" stroke="#000000" stroke-width="1.5" fill="none" stroke-dasharray="1.5 5"></path></g></g><mask></mask><g transform="translate(421.1380773735359 1360.9034972497886) rotate(0 179 114)"><text x="0" y="31.6" font-family="Virgil, Segoe UI Emoji" font-size="36px" fill="#000000" text-anchor="start" style="white-space: pre;" direction="ltr">Session {</text><text x="0" y="77.2" font-family="Virgil, Segoe UI Emoji" font-size="36px" fill="#000000" text-anchor="start" style="white-space: pre;" direction="ltr">    id: string</text><text x="0" y="122.80000000000001" font-family="Virgil, Segoe UI Emoji" font-size="36px" fill="#000000" text-anchor="start" style="white-space: pre;" direction="ltr">    players Player[]</text><text x="0" y="168.4" font-family="Virgil, Segoe UI Emoji" font-size="36px" fill="#000000" text-anchor="start" style="white-space: pre;" direction="ltr">    canvas: XY[]</text><text x="0" y="214" font-family="Virgil, Segoe UI Emoji" font-size="36px" fill="#000000" text-anchor="start" style="white-space: pre;" direction="ltr">} </text></g><g stroke-linecap="round"><g transform="translate(3864.5059634286617 1439.1981841835163) rotate(0 55.76635085269811 25.322010589391084)"><path d="M0.34 -0.14 C18.68 8.15, 92.39 42.34, 111.19 50.78" stroke="#000000" stroke-width="1.5" fill="none" stroke-dasharray="1.5 7"></path></g><g transform="translate(3864.5059634286617 1439.1981841835163) rotate(0 55.76635085269811 25.322010589391084)"><path d="M81.06 47.04 C94.46 51.18, 105.82 51.85, 112.25 50.65" stroke="#000000" stroke-width="1.5" fill="none" stroke-dasharray="1.5 5"></path></g><g transform="translate(3864.5059634286617 1439.1981841835163) rotate(0 55.76635085269811 25.322010589391084)"><path d="M89.59 28.37 C99.78 39.94, 107.75 48, 112.25 50.65" stroke="#000000" stroke-width="1.5" fill="none" stroke-dasharray="1.5 5"></path></g></g><mask></mask><g stroke-linecap="round"><g transform="translate(3850.5059634286617 1631.1981841835163) rotate(0 71.07061944082375 32.67102800533178)"><path d="M0.4 -0.41 C24.1 10.51, 118.17 54.63, 141.74 65.76" stroke="#000000" stroke-width="1.5" fill="none" stroke-dasharray="1.5 7"></path></g><g transform="translate(3850.5059634286617 1631.1981841835163) rotate(0 71.07061944082375 32.67102800533178)"><path d="M111.18 62.62 C119.29 63.4, 128.06 65.81, 139.9 63.82" stroke="#000000" stroke-width="1.5" fill="none" stroke-dasharray="1.5 5"></path></g><g transform="translate(3850.5059634286617 1631.1981841835163) rotate(0 71.07061944082375 32.67102800533178)"><path d="M119.91 44.05 C125.77 49.72, 132.26 57, 139.9 63.82" stroke="#000000" stroke-width="1.5" fill="none" stroke-dasharray="1.5 5"></path></g></g><mask></mask><g transform="translate(1247.688005277747 1608.8221452782298) rotate(0 96 45.5)"><text x="0" y="32.5" font-family="Virgil, Segoe UI Emoji" font-size="36px" fill="#000000" text-anchor="start" style="white-space: pre;" direction="ltr">[RES] Join</text><text x="0" y="78" font-family="Virgil, Segoe UI Emoji" font-size="36px" fill="#000000" text-anchor="start" style="white-space: pre;" direction="ltr">Session</text></g><g transform="translate(1303.9554161921242 1148.5941536575713) rotate(0 158.5 23)"><text x="0" y="32" font-family="Virgil, Segoe UI Emoji" font-size="36px" fill="#000000" text-anchor="start" style="white-space: pre;" direction="ltr">http://api.com/join</text></g><g stroke-linecap="round"><g transform="translate(3555.791677714376 1606.305327040659) rotate(0 -1037.2081794678938 27.85478161557421)"><path d="M-0.97 -0.11 C-346.76 9.47, -1728.43 47.47, -2073.89 56.92 M0.72 -1.21 C-345.34 8.04, -1729.23 45.09, -2075.13 54.92" stroke="#000000" stroke-width="1" fill="none"></path></g><g transform="translate(3555.791677714376 1606.305327040659) rotate(0 -1037.2081794678938 27.85478161557421)"><path d="M-2047.41 42.96 C-2057.12 47.05, -2067.99 51.22, -2073.73 55.23 M-2047.03 44.12 C-2057.56 46.91, -2066.32 51.11, -2074.25 54.87" stroke="#000000" stroke-width="1" fill="none"></path></g><g transform="translate(3555.791677714376 1606.305327040659) rotate(0 -1037.2081794678938 27.85478161557421)"><path d="M-2046.85 63.48 C-2056.67 60.02, -2067.75 56.65, -2073.73 55.23 M-2046.46 64.64 C-2057.16 60.28, -2066.12 57.35, -2074.25 54.87" stroke="#000000" stroke-width="1" fill="none"></path></g></g><mask></mask><g stroke-linecap="round" transform="translate(145.7916777143787 542.9719937073262) rotate(0 818.3333333333328 1268.3333333333326)"><path d="M32 0 M32 0 C366.57 5.05, 700.64 4.38, 1604.67 0 M32 0 C413.44 -4.1, 795.52 -3.79, 1604.67 0 M1604.67 0 C1626.72 -0.77, 1635.56 11.78, 1636.67 32 M1604.67 0 C1626.91 0.74, 1634.77 12.08, 1636.67 32 M1636.67 32 C1634.99 636.48, 1635.79 1240.28, 1636.67 2504.67 M1636.67 32 C1640.83 991.64, 1640.82 1950.96, 1636.67 2504.67 M1636.67 2504.67 C1635.11 2524.68, 1626.45 2536.99, 1604.67 2536.67 M1636.67 2504.67 C1636.65 2524.57, 1625.74 2536.93, 1604.67 2536.67 M1604.67 2536.67 C1080.09 2543.07, 556.95 2542.36, 32 2536.67 M1604.67 2536.67 C1086.72 2532.06, 568.83 2532.39, 32 2536.67 M32 2536.67 C11.86 2537.58, -1.99 2525.14, 0 2504.67 M32 2536.67 C10.78 2538.11, -0.91 2523.79, 0 2504.67 M0 2504.67 C-2.65 1764.78, -2.35 1026.13, 0 32 M0 2504.67 C-4.29 1750.74, -4.24 996.87, 0 32 M0 32 C-0.81 11.46, 9.46 0.09, 32 0 M0 32 C-2.23 12.45, 10.74 -1.89, 32 0" stroke="#000000" stroke-width="1" fill="none"></path></g><g transform="translate(1102.188005277747 1988.8221452782298) rotate(0 169.5 45.5)"><text x="0" y="32.5" font-family="Virgil, Segoe UI Emoji" font-size="36px" fill="#000000" text-anchor="start" style="white-space: pre;" direction="ltr">[RES] Game Start</text><text x="0" y="78" font-family="Virgil, Segoe UI Emoji" font-size="36px" fill="#000000" text-anchor="start" style="white-space: pre;" direction="ltr">Session</text></g><g stroke-linecap="round"><g transform="translate(3935.7916777143764 1306.9754805365687) rotate(0 -1243.2704722768333 358.94190490346955)"><path d="M-0.78 1.19 C-415.25 120.76, -2072.38 597.82, -2486.44 717.11 M1.01 0.77 C-413.67 120.03, -2073.15 596.38, -2487.55 715.4" stroke="#000000" stroke-width="1" fill="none"></path></g><g transform="translate(3935.7916777143764 1306.9754805365687) rotate(0 -1243.2704722768333 358.94190490346955)"><path d="M-2461.29 697.26 C-2469.99 705.07, -2478.27 708.71, -2485.66 714.6 M-2462.49 698.37 C-2473.67 704.11, -2481.68 711.59, -2487.91 715.47" stroke="#000000" stroke-width="1" fill="none"></path></g><g transform="translate(3935.7916777143764 1306.9754805365687) rotate(0 -1243.2704722768333 358.94190490346955)"><path d="M-2455.63 716.98 C-2466.14 718.28, -2476.28 715.44, -2485.66 714.6 M-2456.82 718.09 C-2470.11 716.16, -2480.32 715.98, -2487.91 715.47" stroke="#000000" stroke-width="1" fill="none"></path></g></g><mask></mask><g stroke-linecap="round"><g transform="translate(1463.458344381044 1686.8410413263732) rotate(0 1229.3749980292698 -211.04588236617394)"><path d="M0.45 0.91 C410.53 -69.2, 2049.55 -350.84, 2459.52 -421.27 M-0.77 0.35 C409.18 -70.06, 2048.26 -352.31, 2458.32 -423" stroke="#000000" stroke-width="1" fill="none"></path></g><g transform="translate(1463.458344381044 1686.8410413263732) rotate(0 1229.3749980292698 -211.04588236617394)"><path d="M2433.8 -408.91 C2439.38 -411.1, 2444.57 -413.05, 2458.82 -423.8 M2432.62 -407.87 C2440.08 -413.2, 2449.26 -418.22, 2457.65 -423.45" stroke="#000000" stroke-width="1" fill="none"></path></g><g transform="translate(1463.458344381044 1686.8410413263732) rotate(0 1229.3749980292698 -211.04588236617394)"><path d="M2430.32 -429.13 C2436.58 -426.83, 2442.54 -424.27, 2458.82 -423.8 M2429.14 -428.1 C2437.58 -426.95, 2447.87 -425.53, 2457.65 -423.45" stroke="#000000" stroke-width="1" fill="none"></path></g></g><mask></mask><g stroke-linecap="round" transform="translate(10 3950.172685458503) rotate(0 520.6958065499284 428.23580351769806)"><path d="M32 0 M32 0 C385.35 -3.62, 738.93 -3.09, 1009.39 0 M1009.39 0 C1032.04 -0.75, 1042.58 11.3, 1041.39 32 M1041.39 32 C1041.22 312.1, 1041.18 591.65, 1041.39 824.47 M1041.39 824.47 C1041.79 844.87, 1029.58 857.99, 1009.39 856.47 M1009.39 856.47 C791.4 858.38, 571.99 858.27, 32 856.47 M32 856.47 C9.91 856.76, 0.82 844.36, 0 824.47 M0 824.47 C3 593.24, 2.88 361.86, 0 32 M0 32 C-1.2 9.87, 11.85 0.75, 32 0" stroke="#000000" stroke-width="1.5" fill="none" stroke-dasharray="8 9"></path></g><g transform="translate(452.1282393622032 3870.4954308089004) rotate(0 46.5 21)"><text x="0" y="33" font-family="Helvetica, Segoe UI Emoji" font-size="36px" fill="#000000" text-anchor="start" style="white-space: pre;" direction="ltr">Client</text></g><g stroke-linecap="round" transform="translate(2073.1048839953073 3932.4879719829096) rotate(0 520.6958065499284 428.23580351769806)"><path d="M32 0 M32 0 C262.83 0.19, 493.15 -1.2, 1009.39 0 M1009.39 0 C1029.28 0.82, 1040.09 10.57, 1041.39 32 M1041.39 32 C1044.38 282.68, 1044.04 533.81, 1041.39 824.47 M1041.39 824.47 C1039.91 845.25, 1030.32 857.25, 1009.39 856.47 M1009.39 856.47 C787.2 859.11, 565.16 858.89, 32 856.47 M32 856.47 C11.29 854.76, -0.59 846.11, 0 824.47 M0 824.47 C-2.98 572.26, -3.44 319.47, 0 32 M0 32 C-0.68 9.49, 10.39 0.31, 32 0" stroke="#000000" stroke-width="1.5" fill="none" stroke-dasharray="8 9"></path></g><g transform="translate(2515.2331233575105 3852.8107173333074) rotate(0 56 23)"><text x="0" y="32" font-family="Virgil, Segoe UI Emoji" font-size="36px" fill="#000000" text-anchor="start" style="white-space: pre;" direction="ltr">Server</text></g><g transform="translate(824.2973066692 4067.324068863187) rotate(0 46.5 23)"><text x="0" y="32" font-family="Virgil, Segoe UI Emoji" font-size="36px" fill="#000000" text-anchor="start" style="white-space: pre;" direction="ltr">JOIN</text></g><g stroke-linecap="round"><g transform="translate(961.988049620122 4070.60023819056) rotate(0 599.7217643254642 10.632700835249352)"><path d="M-0.89 -0.05 C199.09 3.56, 1000.23 17.69, 1200.33 21.32" stroke="#000000" stroke-width="1.5" fill="none" stroke-dasharray="8 9"></path></g><g transform="translate(961.988049620122 4070.60023819056) rotate(0 599.7217643254642 10.632700835249352)"><path d="M1171.87 32.04 C1181.71 27.93, 1192.02 26.61, 1201.4 21.6" stroke="#000000" stroke-width="1.5" fill="none"></path></g><g transform="translate(961.988049620122 4070.60023819056) rotate(0 599.7217643254642 10.632700835249352)"><path d="M1172.24 11.52 C1181.88 14.37, 1192.07 20.03, 1201.4 21.6" stroke="#000000" stroke-width="1.5" fill="none"></path></g></g><mask></mask><g transform="translate(2192.824467068575 4051.338182874356) rotate(0 142 18)"><text x="0" y="25" font-family="Virgil, Segoe UI Emoji" font-size="28px" fill="#000000" text-anchor="start" style="white-space: pre;" direction="ltr">Player joins sessions</text></g><g transform="translate(1104.7322582802135 4015.017693187828) rotate(0 112 24)"><text x="112" y="20" font-family="Cascadia, Segoe UI Emoji" font-size="20px" fill="#000000" text-anchor="middle" style="white-space: pre;" direction="ltr">String username</text><text x="112" y="44" font-family="Cascadia, Segoe UI Emoji" font-size="20px" fill="#000000" text-anchor="middle" style="white-space: pre;" direction="ltr">String? sessionsId </text></g><g stroke-linecap="round" transform="translate(1088.5360444064804 4001.734411496693) rotate(0 125.69046511541683 35.80033414364107)"><path d="M17.9 0 M17.9 0 C97.76 -3.27, 180.1 -0.61, 233.48 0 M233.48 0 C245.05 1.85, 251.18 6.11, 251.38 17.9 M251.38 17.9 C250.35 26.2, 253.08 37.26, 251.38 53.7 M251.38 53.7 C250.41 65.66, 244.71 70.51, 233.48 71.6 M233.48 71.6 C162.93 72.88, 90.19 71.24, 17.9 71.6 M17.9 71.6 C7.65 72.35, -0.68 64.69, 0 53.7 M0 53.7 C-1.91 40.78, -0.96 28.69, 0 17.9 M0 17.9 C1.96 7.19, 4.5 1.86, 17.9 0" stroke="#000000" stroke-width="1.5" fill="none" stroke-dasharray="8 9"></path></g><g transform="translate(2192.235444387055 4109.583099713738) rotate(0 126.5 37.5)"><text x="126.5" y="18" font-family="Virgil, Segoe UI Emoji" font-size="20px" fill="#000000" text-anchor="middle" style="white-space: pre;" direction="ltr">get or create sessions</text><text x="126.5" y="43" font-family="Virgil, Segoe UI Emoji" font-size="20px" fill="#000000" text-anchor="middle" style="white-space: pre;" direction="ltr">assign unique id to player</text><text x="126.5" y="68" font-family="Virgil, Segoe UI Emoji" font-size="20px" fill="#000000" text-anchor="middle" style="white-space: pre;" direction="ltr">add player to session</text></g><g stroke-linecap="round" transform="translate(2170.773809747488 4021.4928846816097) rotate(0 175.05457778748348 95.677603244171)"><path d="M32 0 M32 0 C119.58 -1.74, 205.24 0.39, 318.11 0 M318.11 0 C340.54 -0.28, 351.55 11.11, 350.11 32 M350.11 32 C352.82 68.21, 350.52 107.45, 350.11 159.36 M350.11 159.36 C348.22 179.13, 337.59 189.48, 318.11 191.36 M318.11 191.36 C221 191.69, 122.69 193.18, 32 191.36 M32 191.36 C10 190.63, -0.05 181.39, 0 159.36 M0 159.36 C1.93 122.75, 0.32 89.21, 0 32 M0 32 C0.41 9.05, 9.01 -0.44, 32 0" stroke="#000000" stroke-width="1.5" fill="none" stroke-dasharray="8 9"></path></g><g stroke-linecap="round" transform="translate(773.4602148604972 4041.2214904868165) rotate(0 91.66065406391647 45.053433270010146)"><path d="M22.53 0 M22.53 0 C67.58 -0.27, 112.29 2.17, 160.79 0 M160.79 0 C176.71 -0.56, 182.16 9.17, 183.32 22.53 M183.32 22.53 C185.28 34.79, 183.88 47.73, 183.32 67.58 M183.32 67.58 C184.81 83.19, 174.72 88.16, 160.79 90.11 M160.79 90.11 C121.51 89.21, 85.71 88.82, 22.53 90.11 M22.53 90.11 C6.86 88.75, -1.32 84.09, 0 67.58 M0 67.58 C-0.85 50.85, 0.48 33.21, 0 22.53 M0 22.53 C-1.88 6.11, 7.88 1.45, 22.53 0" stroke="#000000" stroke-width="1.5" fill="none" stroke-dasharray="8 9"></path></g><g stroke-linecap="round"><g transform="translate(2169.773809747488 4136.731672676393) rotate(0 -568.5844156010155 28.443476168718007)"><path d="M-0.95 -0.92 C-190.26 8.84, -947.28 48.06, -1136.21 57.81" stroke="#000000" stroke-width="1.5" fill="none" stroke-dasharray="8 9"></path></g><g transform="translate(2169.773809747488 4136.731672676393) rotate(0 -568.5844156010155 28.443476168718007)"><path d="M-1110.13 45.3 C-1115.32 50.97, -1123.14 51.33, -1135.65 57.74" stroke="#000000" stroke-width="1.5" fill="none"></path></g><g transform="translate(2169.773809747488 4136.731672676393) rotate(0 -568.5844156010155 28.443476168718007)"><path d="M-1109.07 65.8 C-1114.41 65.93, -1122.52 60.75, -1135.65 57.74" stroke="#000000" stroke-width="1.5" fill="none"></path></g></g><mask></mask><g transform="translate(1840.6509227009437 4158.466798403968) rotate(0 88 23.999999999999773)"><text x="88" y="20" font-family="Cascadia, Segoe UI Emoji" font-size="20px" fill="#000000" text-anchor="middle" style="white-space: pre;" direction="ltr">Session session</text><text x="88" y="44" font-family="Cascadia, Segoe UI Emoji" font-size="20px" fill="#000000" text-anchor="middle" style="white-space: pre;" direction="ltr">Player player</text></g><g stroke-linecap="round" transform="translate(1828.7706702446617 4150.951365239298) rotate(0 100.05471219615924 36.691529935548715)"><path d="M18.35 0 M18.35 0 C65.16 -1.04, 114.47 2.5, 181.76 0 M181.76 0 C193.16 0.79, 198.45 6.58, 200.11 18.35 M200.11 18.35 C200.9 30.42, 201.09 45.35, 200.11 55.04 M200.11 55.04 C200.61 67.54, 194.17 74.95, 181.76 73.38 M181.76 73.38 C119.73 74.34, 56.25 74.04, 18.35 73.38 M18.35 73.38 C7.33 73.32, 0.72 65.58, 0 55.04 M0 55.04 C1.6 40.22, 1.32 27.21, 0 18.35 M0 18.35 C1.96 4.35, 4.42 0.26, 18.35 0" stroke="#000000" stroke-width="1.5" fill="none" stroke-dasharray="8 9"></path></g><g transform="translate(698.449273459277 4162.0008725177) rotate(0 159.5 25)"><text x="159.5" y="18" font-family="Virgil, Segoe UI Emoji" font-size="20px" fill="#000000" text-anchor="middle" style="white-space: pre;" direction="ltr">Save session</text><text x="159.5" y="43" font-family="Virgil, Segoe UI Emoji" font-size="20px" fill="#000000" text-anchor="middle" style="white-space: pre;" direction="ltr">save player as local player (me)</text></g><g stroke-linecap="round" transform="translate(680.2638508668856 4145.0693990119335) rotate(0 175.05457778748348 48.193163115582365)"><path d="M24.1 0 M24.1 0 C143.22 0.69, 262.17 -1.24, 326.01 0 M326.01 0 C341.82 1.64, 349.14 9.68, 350.11 24.1 M350.11 24.1 C350.29 35.81, 350.33 48.81, 350.11 72.29 M350.11 72.29 C351.41 89.67, 343.75 96.48, 326.01 96.39 M326.01 96.39 C221.97 97.06, 115.81 96.9, 24.1 96.39 M24.1 96.39 C7 98.09, 0.7 88.79, 0 72.29 M0 72.29 C0.15 60.44, 1.03 49.16, 0 24.1 M0 24.1 C-0.04 6.66, 9.15 0.81, 24.1 0" stroke="#000000" stroke-width="1.5" fill="none" stroke-dasharray="8 9"></path></g><g transform="translate(2588.2443245768095 4070.866884208497) rotate(0 178.5 37.5)"><text x="178.5" y="18" font-family="Virgil, Segoe UI Emoji" font-size="20px" fill="#000000" text-anchor="middle" style="white-space: pre;" direction="ltr">maybe if username exists in session</text><text x="178.5" y="43" font-family="Virgil, Segoe UI Emoji" font-size="20px" fill="#000000" text-anchor="middle" style="white-space: pre;" direction="ltr"> return existing id </text><text x="178.5" y="68" font-family="Virgil, Segoe UI Emoji" font-size="20px" fill="#000000" text-anchor="middle" style="white-space: pre;" direction="ltr">or just dont care about reconnects</text></g><g stroke-linecap="round"><g transform="translate(2457.7411022474867 4145.069399011933) rotate(0 70.87229869938596 -17.009351687852586)"><path d="M0 0 C23.62 -5.67, 118.12 -28.35, 141.74 -34.02 M0 0 C23.62 -5.67, 118.12 -28.35, 141.74 -34.02" stroke="#000000" stroke-width="1" fill="none"></path></g></g><mask></mask><g transform="translate(1479.7885632127163 3604.3730329572045) rotate(0 145 112.5)"><text x="0" y="18" font-family="Virgil, Segoe UI Emoji" font-size="20px" fill="#000000" text-anchor="start" style="white-space: pre;" direction="ltr">* Sessions {</text><text x="0" y="43" font-family="Virgil, Segoe UI Emoji" font-size="20px" fill="#000000" text-anchor="start" style="white-space: pre;" direction="ltr">    Player[] players</text><text x="0" y="68" font-family="Virgil, Segoe UI Emoji" font-size="20px" fill="#000000" text-anchor="start" style="white-space: pre;" direction="ltr">    XYPoint[] canvas</text><text x="0" y="93" font-family="Virgil, Segoe UI Emoji" font-size="20px" fill="#000000" text-anchor="start" style="white-space: pre;" direction="ltr">    Player drawing</text><text x="0" y="118" font-family="Virgil, Segoe UI Emoji" font-size="20px" fill="#000000" text-anchor="start" style="white-space: pre;" direction="ltr">    Int currRound</text><text x="0" y="143" font-family="Virgil, Segoe UI Emoji" font-size="20px" fill="#000000" text-anchor="start" style="white-space: pre;" direction="ltr">    Int maxRounds</text><text x="0" y="168" font-family="Virgil, Segoe UI Emoji" font-size="20px" fill="#000000" text-anchor="start" style="white-space: pre;" direction="ltr">    Int timeLeft</text><text x="0" y="193" font-family="Virgil, Segoe UI Emoji" font-size="20px" fill="#000000" text-anchor="start" style="white-space: pre;" direction="ltr">    GameStatus gameStatus</text><text x="0" y="218" font-family="Virgil, Segoe UI Emoji" font-size="20px" fill="#000000" text-anchor="start" style="white-space: pre;" direction="ltr">}</text></g><g stroke-linecap="round" transform="translate(1398.1470224478771 3563.1270767974147) rotate(0 194.88211134310149 148.63889848202666)"><path d="M389.76 148.64 C389.76 152.17, 389.6 155.72, 389.27 159.24 C388.94 162.77, 388.44 166.29, 387.78 169.79 C387.12 173.29, 386.3 176.78, 385.31 180.23 C384.33 183.69, 383.18 187.12, 381.87 190.52 C380.56 193.91, 379.1 197.27, 377.48 200.58 C375.86 203.89, 374.08 207.17, 372.15 210.39 C370.23 213.6, 368.15 216.77, 365.93 219.87 C363.71 222.98, 361.33 226.03, 358.83 229 C356.32 231.97, 353.67 234.89, 350.89 237.71 C348.12 240.54, 345.2 243.31, 342.16 245.98 C339.13 248.65, 335.96 251.24, 332.68 253.74 C329.41 256.24, 326.01 258.66, 322.5 260.97 C319 263.29, 315.38 265.51, 311.67 267.63 C307.96 269.75, 304.14 271.77, 300.24 273.68 C296.34 275.59, 292.35 277.4, 288.28 279.1 C284.21 280.79, 280.05 282.38, 275.84 283.85 C271.62 285.31, 267.33 286.67, 262.99 287.91 C258.64 289.14, 254.23 290.26, 249.79 291.26 C245.34 292.25, 240.84 293.13, 236.31 293.88 C231.78 294.63, 227.2 295.26, 222.62 295.76 C218.03 296.27, 213.41 296.65, 208.78 296.9 C204.16 297.15, 199.52 297.28, 194.88 297.28 C190.25 297.28, 185.6 297.15, 180.98 296.9 C176.36 296.65, 171.73 296.27, 167.15 295.76 C162.56 295.26, 157.99 294.63, 153.46 293.88 C148.93 293.13, 144.42 292.25, 139.98 291.26 C135.53 290.26, 131.12 289.14, 126.78 287.91 C122.44 286.67, 118.14 285.31, 113.93 283.85 C109.71 282.38, 105.55 280.79, 101.49 279.1 C97.42 277.4, 93.42 275.59, 89.52 273.68 C85.62 271.77, 81.8 269.75, 78.09 267.63 C74.38 265.51, 70.76 263.29, 67.26 260.97 C63.76 258.66, 60.36 256.24, 57.08 253.74 C53.8 251.24, 50.63 248.65, 47.6 245.98 C44.57 243.31, 41.65 240.54, 38.87 237.71 C36.09 234.89, 33.44 231.97, 30.94 229 C28.43 226.03, 26.06 222.98, 23.84 219.87 C21.62 216.77, 19.54 213.6, 17.61 210.39 C15.69 207.17, 13.91 203.89, 12.29 200.58 C10.67 197.27, 9.2 193.91, 7.89 190.52 C6.59 187.12, 5.44 183.69, 4.45 180.23 C3.47 176.78, 2.64 173.29, 1.98 169.79 C1.32 166.29, 0.83 162.77, 0.5 159.24 C0.17 155.72, 0 152.17, 0 148.64 C0 145.1, 0.17 141.56, 0.5 138.04 C0.83 134.51, 1.32 130.98, 1.98 127.49 C2.64 123.99, 3.47 120.5, 4.45 117.04 C5.44 113.59, 6.59 110.15, 7.89 106.76 C9.2 103.37, 10.67 100.01, 12.29 96.69 C13.91 93.38, 15.69 90.11, 17.61 86.89 C19.54 83.68, 21.62 80.51, 23.84 77.4 C26.06 74.3, 28.43 71.25, 30.94 68.28 C33.44 65.31, 36.09 62.39, 38.87 59.56 C41.65 56.73, 44.57 53.97, 47.6 51.3 C50.63 48.63, 53.8 46.03, 57.08 43.54 C60.36 41.04, 63.76 38.62, 67.26 36.31 C70.76 33.99, 74.38 31.77, 78.09 29.65 C81.8 27.53, 85.62 25.51, 89.52 23.6 C93.42 21.68, 97.42 19.88, 101.49 18.18 C105.55 16.49, 109.71 14.9, 113.93 13.43 C118.14 11.96, 122.44 10.61, 126.78 9.37 C131.12 8.14, 135.53 7.02, 139.98 6.02 C144.42 5.03, 148.93 4.15, 153.46 3.4 C157.99 2.65, 162.56 2.02, 167.15 1.51 C171.73 1.01, 176.36 0.63, 180.98 0.38 C185.6 0.13, 190.25 0, 194.88 0 C199.52 0, 204.16 0.13, 208.78 0.38 C213.41 0.63, 218.03 1.01, 222.62 1.51 C227.2 2.02, 231.78 2.65, 236.31 3.4 C240.84 4.15, 245.34 5.03, 249.79 6.02 C254.23 7.02, 258.64 8.14, 262.99 9.37 C267.33 10.61, 271.62 11.96, 275.84 13.43 C280.05 14.9, 284.21 16.49, 288.28 18.18 C292.35 19.88, 296.34 21.68, 300.24 23.6 C304.14 25.51, 307.96 27.53, 311.67 29.65 C315.38 31.77, 319 33.99, 322.5 36.31 C326.01 38.62, 329.41 41.04, 332.68 43.54 C335.96 46.03, 339.13 48.63, 342.16 51.3 C345.2 53.97, 348.12 56.73, 350.89 59.56 C353.67 62.39, 356.32 65.31, 358.83 68.28 C361.33 71.25, 363.71 74.3, 365.93 77.4 C368.15 80.51, 370.23 83.68, 372.15 86.89 C374.08 90.11, 375.86 93.38, 377.48 96.69 C379.1 100.01, 380.56 103.37, 381.87 106.76 C383.18 110.15, 384.33 113.59, 385.31 117.04 C386.3 120.5, 387.12 123.99, 387.78 127.49 C388.44 130.98, 388.94 134.51, 389.27 138.04 C389.6 141.56, 389.76 145.1, 389.76 148.64" stroke="#000000" stroke-width="1" fill="none"></path></g><g transform="translate(585.0860764599424 4490.7563970931715) rotate(0 169 18)"><text x="0" y="25" font-family="Virgil, Segoe UI Emoji" font-size="28px" fill="#000000" text-anchor="start" style="white-space: pre;" direction="ltr">DRAW if local is drawing</text></g><g stroke-linecap="round" transform="translate(497.6978868298379 4467.5976193241595) rotate(0 227.08720601420703 41.288582911673984)"><path d="M20.64 0 M20.64 0 C138.78 0, 256.92 0, 433.53 0 M433.53 0 C447.29 0, 454.17 6.88, 454.17 20.64 M454.17 20.64 C454.17 34.75, 454.17 48.86, 454.17 61.93 M454.17 61.93 C454.17 75.7, 447.29 82.58, 433.53 82.58 M433.53 82.58 C282.3 82.58, 131.07 82.58, 20.64 82.58 M20.64 82.58 C6.88 82.58, 0 75.7, 0 61.93 M0 61.93 C0 53.02, 0 44.1, 0 20.64 M0 20.64 C0 6.88, 6.88 0, 20.64 0" stroke="#000000" stroke-width="1.5" fill="none" stroke-dasharray="8 9"></path></g><g stroke-linecap="round"><g transform="translate(960.1300154405874 4498.039398343521) rotate(0 586.2978773457718 9.55226023732439)"><path d="M0 0 C195.43 3.18, 977.16 15.92, 1172.6 19.1" stroke="#000000" stroke-width="1.5" fill="none" stroke-dasharray="8 9"></path></g><g transform="translate(960.1300154405874 4498.039398343521) rotate(0 586.2978773457718 9.55226023732439)"><path d="M1144.24 28.9 C1150.93 26.59, 1157.61 24.28, 1172.6 19.1" stroke="#000000" stroke-width="1.5" fill="none"></path></g><g transform="translate(960.1300154405874 4498.039398343521) rotate(0 586.2978773457718 9.55226023732439)"><path d="M1144.58 8.39 C1151.18 10.91, 1157.79 13.44, 1172.6 19.1" stroke="#000000" stroke-width="1.5" fill="none"></path></g></g><mask></mask><g stroke-linecap="round" transform="translate(2177.317439676739 4457.6883594253595) rotate(0 197.74272712930144 90.00911074744954)"><path d="M32 0 M32 0 C99.59 0, 167.18 0, 363.49 0 M363.49 0 C384.82 0, 395.49 10.67, 395.49 32 M395.49 32 C395.49 64.25, 395.49 96.5, 395.49 148.02 M395.49 148.02 C395.49 169.35, 384.82 180.02, 363.49 180.02 M363.49 180.02 C232.03 180.02, 100.57 180.02, 32 180.02 M32 180.02 C10.67 180.02, 0 169.35, 0 148.02 M0 148.02 C0 103.33, 0 58.64, 0 32 M0 32 C0 10.67, 10.67 0, 32 0" stroke="#000000" stroke-width="1.5" fill="none" stroke-dasharray="8 9"></path></g><g transform="translate(1065.5111973402793 4416.940648570243) rotate(0 117 36)"><text x="0" y="20" font-family="Cascadia, Segoe UI Emoji" font-size="20px" fill="#000000" text-anchor="start" style="white-space: pre;" direction="ltr">String sessionsId</text><text x="0" y="44" font-family="Cascadia, Segoe UI Emoji" font-size="20px" fill="#000000" text-anchor="start" style="white-space: pre;" direction="ltr">String playerId (me)</text><text x="0" y="68" font-family="Cascadia, Segoe UI Emoji" font-size="20px" fill="#000000" text-anchor="start" style="white-space: pre;" direction="ltr">XYPoint[] drawing</text></g><g stroke-linecap="round" transform="translate(1045.6926775426757 4403.455771920443) rotate(0 139.55541024145833 50.37207115224237)"><path d="M25.19 0 M25.19 0 C78.95 0, 132.71 0, 253.92 0 M253.92 0 C270.72 0, 279.11 8.4, 279.11 25.19 M279.11 25.19 C279.11 43.03, 279.11 60.87, 279.11 75.56 M279.11 75.56 C279.11 92.35, 270.72 100.74, 253.92 100.74 M253.92 100.74 C187.38 100.74, 120.83 100.74, 25.19 100.74 M25.19 100.74 C8.4 100.74, 0 92.35, 0 75.56 M0 75.56 C0 64.83, 0 54.09, 0 25.19 M0 25.19 C0 8.4, 8.4 0, 25.19 0" stroke="#000000" stroke-width="1.5" fill="none" stroke-dasharray="8 9"></path></g><g transform="translate(2213.651392639011 4478.522312387633) rotate(0 124.5 18)"><text x="0" y="25" font-family="Virgil, Segoe UI Emoji" font-size="28px" fill="#000000" text-anchor="start" style="white-space: pre;" direction="ltr">Player drew stuff</text></g><g transform="translate(2215.2726892550786 4526.644228632641) rotate(0 164 37.5)"><text x="0" y="18" font-family="Virgil, Segoe UI Emoji" font-size="20px" fill="#000000" text-anchor="start" style="white-space: pre;" direction="ltr">Identify session and player</text><text x="0" y="43" font-family="Virgil, Segoe UI Emoji" font-size="20px" fill="#000000" text-anchor="start" style="white-space: pre;" direction="ltr">Update canvas of server session</text><text x="0" y="68" font-family="Virgil, Segoe UI Emoji" font-size="20px" fill="#000000" text-anchor="start" style="white-space: pre;" direction="ltr">Notify players in sessions</text></g><g transform="translate(1045.1094080053865 3611.5655383938883) rotate(0 97 50)"><text x="0" y="18" font-family="Virgil, Segoe UI Emoji" font-size="20px" fill="#000000" text-anchor="start" style="white-space: pre;" direction="ltr">* Player {</text><text x="0" y="43" font-family="Virgil, Segoe UI Emoji" font-size="20px" fill="#000000" text-anchor="start" style="white-space: pre;" direction="ltr">    String id</text><text x="0" y="68" font-family="Virgil, Segoe UI Emoji" font-size="20px" fill="#000000" text-anchor="start" style="white-space: pre;" direction="ltr">    String username</text><text x="0" y="93" font-family="Virgil, Segoe UI Emoji" font-size="20px" fill="#000000" text-anchor="start" style="white-space: pre;" direction="ltr">}</text></g><g stroke-linecap="round" transform="translate(1001.4533635192872 3568.6680389176317) rotate(0 138.5662793283612 90.38070617675316)"><path d="M277.13 90.38 C277.13 93.01, 276.96 95.64, 276.61 98.26 C276.25 100.87, 275.73 103.49, 275.03 106.08 C274.33 108.66, 273.45 111.24, 272.41 113.77 C271.37 116.31, 270.15 118.83, 268.78 121.29 C267.4 123.76, 265.85 126.2, 264.15 128.58 C262.45 130.96, 260.58 133.3, 258.57 135.57 C256.56 137.85, 254.38 140.07, 252.07 142.22 C249.76 144.37, 247.3 146.46, 244.71 148.48 C242.13 150.49, 239.39 152.43, 236.55 154.29 C233.7 156.15, 230.72 157.93, 227.63 159.62 C224.55 161.3, 221.34 162.91, 218.04 164.42 C214.75 165.92, 211.34 167.34, 207.85 168.65 C204.36 169.97, 200.78 171.18, 197.13 172.29 C193.48 173.4, 189.74 174.41, 185.96 175.31 C182.18 176.21, 178.32 177, 174.43 177.68 C170.54 178.36, 166.59 178.93, 162.63 179.39 C158.66 179.84, 154.65 180.19, 150.64 180.42 C146.63 180.65, 142.59 180.76, 138.57 180.76 C134.54 180.76, 130.5 180.65, 126.49 180.42 C122.48 180.19, 118.47 179.84, 114.5 179.39 C110.54 178.93, 106.59 178.36, 102.7 177.68 C98.81 177, 94.96 176.21, 91.17 175.31 C87.39 174.41, 83.65 173.4, 80.01 172.29 C76.36 171.18, 72.77 169.97, 69.28 168.65 C65.8 167.34, 62.39 165.92, 59.09 164.42 C55.79 162.91, 52.58 161.3, 49.5 159.62 C46.41 157.93, 43.43 156.15, 40.59 154.29 C37.74 152.43, 35.01 150.49, 32.42 148.48 C29.83 146.46, 27.37 144.37, 25.06 142.22 C22.75 140.07, 20.58 137.85, 18.56 135.57 C16.55 133.3, 14.68 130.96, 12.98 128.58 C11.28 126.2, 9.73 123.76, 8.36 121.29 C6.98 118.83, 5.76 116.31, 4.72 113.77 C3.68 111.24, 2.8 108.66, 2.11 106.08 C1.41 103.49, 0.88 100.87, 0.53 98.26 C0.18 95.64, 0 93.01, 0 90.38 C0 87.75, 0.18 85.12, 0.53 82.5 C0.88 79.89, 1.41 77.27, 2.11 74.69 C2.8 72.1, 3.68 69.52, 4.72 66.99 C5.76 64.45, 6.98 61.94, 8.36 59.47 C9.73 57, 11.28 54.56, 12.98 52.18 C14.68 49.8, 16.55 47.46, 18.56 45.19 C20.58 42.92, 22.75 40.69, 25.06 38.54 C27.37 36.39, 29.83 34.3, 32.42 32.29 C35.01 30.27, 37.74 28.33, 40.59 26.47 C43.43 24.62, 46.41 22.83, 49.5 21.15 C52.58 19.46, 55.79 17.85, 59.09 16.35 C62.39 14.84, 65.8 13.42, 69.28 12.11 C72.77 10.8, 76.36 9.58, 80.01 8.47 C83.65 7.36, 87.39 6.35, 91.17 5.45 C94.96 4.55, 98.81 3.76, 102.7 3.08 C106.59 2.4, 110.54 1.83, 114.5 1.37 C118.47 0.92, 122.48 0.57, 126.49 0.34 C130.5 0.12, 134.54 0, 138.57 0 C142.59 0, 146.63 0.12, 150.64 0.34 C154.65 0.57, 158.66 0.92, 162.63 1.37 C166.59 1.83, 170.54 2.4, 174.43 3.08 C178.32 3.76, 182.18 4.55, 185.96 5.45 C189.74 6.35, 193.48 7.36, 197.13 8.47 C200.78 9.58, 204.36 10.8, 207.85 12.11 C211.34 13.42, 214.75 14.84, 218.04 16.35 C221.34 17.85, 224.55 19.46, 227.63 21.15 C230.72 22.83, 233.7 24.62, 236.55 26.47 C239.39 28.33, 242.13 30.27, 244.71 32.29 C247.3 34.3, 249.76 36.39, 252.07 38.54 C254.38 40.69, 256.56 42.92, 258.57 45.19 C260.58 47.46, 262.45 49.8, 264.15 52.18 C265.85 54.56, 267.4 57, 268.78 59.47 C270.15 61.94, 271.37 64.45, 272.41 66.99 C273.45 69.52, 274.33 72.1, 275.03 74.69 C275.73 77.27, 276.25 79.89, 276.61 82.5 C276.96 85.12, 277.04 89.07, 277.13 90.38 C277.22 91.69, 277.22 89.07, 277.13 90.38" stroke="#000000" stroke-width="1" fill="none"></path></g><g stroke-linecap="round"><g transform="translate(2169.6792246930677 4570.694021259401) rotate(0 -573.9113024722694 45.417441202841474)"><path d="M0 0 C-191.3 15.14, -956.52 75.7, -1147.82 90.83" stroke="#000000" stroke-width="1.5" fill="none" stroke-dasharray="8 9"></path></g><g transform="translate(2169.6792246930677 4570.694021259401) rotate(0 -573.9113024722694 45.417441202841474)"><path d="M-1120.53 78.38 C-1131.11 83.21, -1141.69 88.04, -1147.82 90.83" stroke="#000000" stroke-width="1.5" fill="none"></path></g><g transform="translate(2169.6792246930677 4570.694021259401) rotate(0 -573.9113024722694 45.417441202841474)"><path d="M-1118.91 98.84 C-1130.12 95.74, -1141.33 92.63, -1147.82 90.83" stroke="#000000" stroke-width="1.5" fill="none"></path></g></g><mask></mask><g transform="translate(1828.948997085678 4610.71250169682) rotate(357.6258119753077 106 12)"><text x="106" y="20" font-family="Cascadia, Segoe UI Emoji" font-size="20px" fill="#000000" text-anchor="middle" style="white-space: pre;" direction="ltr">XYPoints[] drawing</text></g><g stroke-linecap="round" transform="translate(1812.019906385517 4593.82663417823) rotate(357.6258119753077 109.96397209496092 30.911128327914412)"><path d="M15.46 0 M15.46 0 C65.05 -1.75, 117.56 -1.73, 204.47 0 M204.47 0 C214.97 0.85, 218.47 3.8, 219.93 15.46 M219.93 15.46 C219.15 24.13, 220.81 33.46, 219.93 46.37 M219.93 46.37 C219.97 55.88, 215.02 62.92, 204.47 61.82 M204.47 61.82 C133.01 61.83, 63.74 61.59, 15.46 61.82 M15.46 61.82 C5.74 63.52, -0.4 57.27, 0 46.37 M0 46.37 C-1.65 35.62, 0.8 25.96, 0 15.46 M0 15.46 C-1.88 4.21, 3.74 1.78, 15.46 0" stroke="#000000" stroke-width="1.5" fill="none" stroke-dasharray="8 9"></path></g><g transform="translate(698.1541297210053 4647.5742737156825) rotate(0 146 25)"><text x="0" y="18" font-family="Virgil, Segoe UI Emoji" font-size="20px" fill="#000000" text-anchor="start" style="white-space: pre;" direction="ltr">if drawing dont care</text><text x="0" y="43" font-family="Virgil, Segoe UI Emoji" font-size="20px" fill="#000000" text-anchor="start" style="white-space: pre;" direction="ltr">if not drawing update canvas</text></g><g stroke-linecap="round" transform="translate(670.077893341067 4597.11871432287) rotate(0 166.8058749631632 61.93287436751143)"><path d="M30.97 0 M30.97 0 C132.25 0, 233.53 0, 302.65 0 M302.65 0 C323.29 0, 333.61 10.32, 333.61 30.97 M333.61 30.97 C333.61 51.77, 333.61 72.58, 333.61 92.9 M333.61 92.9 C333.61 113.54, 323.29 123.87, 302.65 123.87 M302.65 123.87 C233.68 123.87, 164.71 123.87, 30.97 123.87 M30.97 123.87 C10.32 123.87, 0 113.54, 0 92.9 M0 92.9 C0 78.14, 0 63.39, 0 30.97 M0 30.97 C0 10.32, 10.32 0, 30.97 0" stroke="#000000" stroke-width="1.5" fill="none" stroke-dasharray="8 9"></path></g><g transform="translate(704.792559692273 4606.663241721312) rotate(0 116 18)"><text x="0" y="25" font-family="Virgil, Segoe UI Emoji" font-size="28px" fill="#000000" text-anchor="start" style="white-space: pre;" direction="ltr">Canvas updated.</text></g><g transform="translate(2194.253038497146 4271.338182874355) rotate(0 213.5 17.5)"><text x="0" y="25" font-family="Virgil, Segoe UI Emoji" font-size="28px" fill="#000000" text-anchor="start" style="white-space: pre;" direction="ltr">Game starts (enough players?)</text></g><g transform="translate(2184.164015815626 4329.583099713738) rotate(0 136 50)"><text x="136" y="18" font-family="Virgil, Segoe UI Emoji" font-size="20px" fill="#000000" text-anchor="middle" style="white-space: pre;" direction="ltr">start game (ev. session)</text><text x="136" y="43" font-family="Virgil, Segoe UI Emoji" font-size="20px" fill="#000000" text-anchor="middle" style="white-space: pre;" direction="ltr">determinate starting player</text><text x="136" y="68" font-family="Virgil, Segoe UI Emoji" font-size="20px" fill="#000000" text-anchor="middle" style="white-space: pre;" direction="ltr"></text><text x="136" y="93" font-family="Virgil, Segoe UI Emoji" font-size="20px" fill="#000000" text-anchor="middle" style="white-space: pre;" direction="ltr"></text></g><g stroke-linecap="round" transform="translate(2172.202381176059 4241.492884681609) rotate(0 232.19743493034076 95.67760324417122)"><path d="M32 0 M32 0 C187.74 -1.76, 343.7 -0.61, 432.39 0 M432.39 0 C452.6 -0.08, 462.86 10.9, 464.39 32 M464.39 32 C461.45 70.47, 464.3 108.81, 464.39 159.36 M464.39 159.36 C464.52 181.62, 455.42 192.1, 432.39 191.36 M432.39 191.36 C290.72 189.42, 146.58 189.56, 32 191.36 M32 191.36 C11.28 189.62, 0.42 179.02, 0 159.36 M0 159.36 C0.76 114.31, 1.37 69.84, 0 32 M0 32 C0.52 8.67, 11.71 -0.76, 32 0" stroke="#000000" stroke-width="1.5" fill="none" stroke-dasharray="8 9"></path></g><g transform="translate(702.2826067926105 4318.667539184367) rotate(0 129 17.5)"><text x="129" y="25" font-family="Virgil, Segoe UI Emoji" font-size="28px" fill="#000000" text-anchor="middle" style="white-space: pre;" direction="ltr">Start game locally</text></g><g stroke-linecap="round" transform="translate(658.5971842002189 4290.0693990119335) rotate(0 175.05457778748348 48.19316311558259)"><path d="M24.1 0 M24.1 0 C114.52 1.98, 205.21 1.89, 326.01 0 M326.01 0 C340.99 -0.08, 350.34 9.05, 350.11 24.1 M350.11 24.1 C348.67 38.36, 349.71 53.14, 350.11 72.29 M350.11 72.29 C348.59 87.48, 342.86 95.57, 326.01 96.39 M326.01 96.39 C264.54 95.5, 201.78 96.61, 24.1 96.39 M24.1 96.39 C7.18 96.59, 1.21 90.16, 0 72.29 M0 72.29 C-0.36 56.36, 0.96 40.78, 0 24.1 M0 24.1 C-1.39 6.44, 8.68 -0.33, 24.1 0" stroke="#000000" stroke-width="1.5" fill="none" stroke-dasharray="8 9"></path></g><g stroke-linecap="round"><g transform="translate(2169.8154872381842 4306.528352369733) rotate(0 -579.6581283614038 11.733209155042914)"><path d="M-0.37 0.59 C-193.55 4.32, -965.52 19.21, -1158.95 22.88" stroke="#000000" stroke-width="1.5" fill="none" stroke-dasharray="8 9"></path></g><g transform="translate(2169.8154872381842 4306.528352369733) rotate(0 -579.6581283614038 11.733209155042914)"><path d="M-1129.98 13.83 C-1140.26 13.81, -1149.44 19.02, -1159.25 20.93" stroke="#000000" stroke-width="1.5" fill="none"></path></g><g transform="translate(2169.8154872381842 4306.528352369733) rotate(0 -579.6581283614038 11.733209155042914)"><path d="M-1129.58 34.35 C-1140.07 27.98, -1149.37 26.86, -1159.25 20.93" stroke="#000000" stroke-width="1.5" fill="none"></path></g></g><mask></mask><g transform="translate(1773.8445306736123 4341.940648570244) rotate(0 111.5 24)"><text x="0" y="19" font-family="Cascadia, Segoe UI Emoji" font-size="20px" fill="#000000" text-anchor="start" style="white-space: pre;" direction="ltr">(String sessionId?)</text><text x="0" y="43" font-family="Cascadia, Segoe UI Emoji" font-size="20px" fill="#000000" text-anchor="start" style="white-space: pre;" direction="ltr">Player drawing</text></g><g stroke-linecap="round" transform="translate(1754.0260108760087 4326.789105253777) rotate(0 139.55541024145833 50.37207115224237)"><path d="M25.19 0 M25.19 0 C83.25 0, 141.31 0, 253.92 0 M253.92 0 C270.72 0, 279.11 8.4, 279.11 25.19 M279.11 25.19 C279.11 35.55, 279.11 45.91, 279.11 75.56 M279.11 75.56 C279.11 92.35, 270.72 100.74, 253.92 100.74 M253.92 100.74 C201.35 100.74, 148.78 100.74, 25.19 100.74 M25.19 100.74 C8.4 100.74, 0 92.35, 0 75.56 M0 75.56 C0 61.42, 0 47.29, 0 25.19 M0 25.19 C0 8.4, 8.4 0, 25.19 0" stroke="#000000" stroke-width="1.5" fill="none" stroke-dasharray="8 9"></path></g></svg>