<svg version="1.1" xmlns="http://www.w3.org/2000/svg" viewBox="0 0 1977.200012207031 2506.9003344775983" width="1977.200012207031" height="2506.9003344775983">
  <!-- svg-source:excalidraw -->
  
  <defs>
    <style class="style-fonts">
      @font-face {
        font-family: "Virgil";
        src: url("https://excalidraw.com/Virgil.woff2");
      }
      @font-face {
        font-family: "Cascadia";
        src: url("https://excalidraw.com/Cascadia.woff2");
      }
    </style>
  </defs>
  <rect x="0" y="0" width="1977.200012207031" height="2506.9003344775983" fill="#ffffff"></rect><g stroke-linecap="round" transform="translate(489.7158852229043 414.4956030904149) rotate(0 123 108)"><path d="M155 27.25 M155 27.25 C166.55 38.28, 182.13 52.21, 215 81.75 M155 27.25 C168.67 37.99, 180.64 49.85, 215 81.75 M215 81.75 C244.04 107.18, 245.98 109.41, 215 136.25 M215 81.75 C244.43 108.83, 247.1 107.29, 215 136.25 M215 136.25 C198.19 148.66, 182.92 163.14, 155 188.75 M215 136.25 C196.49 153.26, 178.03 170.07, 155 188.75 M155 188.75 C122.44 214.57, 124.23 214.89, 93 188.75 M155 188.75 C125.6 218.16, 122.15 214.07, 93 188.75 M93 188.75 C72.99 170.93, 49.73 152.86, 31 136.25 M93 188.75 C79.71 177.39, 64.92 166.62, 31 136.25 M31 136.25 C-1.32 110.26, 1.87 108.86, 31 81.75 M31 136.25 C-2.1 110.84, -1.29 110.98, 31 81.75 M31 81.75 C44.22 70.34, 57.75 57.22, 93 27.25 M31 81.75 C45.28 70.8, 57.9 57.91, 93 27.25 M93 27.25 C122.04 -1.67, 124.3 1.33, 155 27.25 M93 27.25 C125.09 1.72, 125.58 0.29, 155 27.25" stroke="#000000" stroke-width="1" fill="none"></path></g><g transform="translate(581.8269963340151 391.0511586459703) rotate(0 96.5 12.5)"><text x="0" y="18" font-family="Virgil, Segoe UI Emoji" font-size="20px" fill="#000000" text-anchor="start" style="white-space: pre;" direction="ltr">Client Initial State</text></g><g stroke-linecap="round" transform="translate(1696.800109863281 346.9003649951766) rotate(0 124 111.99998474121094)"><path d="M156.25 28 M156.25 28 C170.5 41.41, 183 53.87, 216.75 84 M156.25 28 C168.03 39.64, 179.95 51.37, 216.75 84 M216.75 84 C249.83 110.02, 246.21 110.38, 216.75 140 M216.75 84 C246.18 110.6, 247.9 113.01, 216.75 140 M216.75 140 C194.57 159.59, 173.82 180.58, 156.25 196 M216.75 140 C193.73 160.62, 170.46 182.28, 156.25 196 M156.25 196 C126.22 225.06, 123.8 224.29, 93.75 196 M156.25 196 C124.33 222.65, 122.72 222.25, 93.75 196 M93.75 196 C80.27 182.39, 68.66 171, 31.25 140 M93.75 196 C79.09 182.89, 65.61 171.42, 31.25 140 M31.25 140 C-0.73 111.39, -1.53 110.82, 31.25 84 M31.25 140 C-0.11 113.56, -0.11 111, 31.25 84 M31.25 84 C46.83 69.59, 62.44 53.82, 93.75 28 M31.25 84 C55.65 62.68, 81.14 40.13, 93.75 28 M93.75 28 C125.13 0.86, 123.53 0.83, 156.25 28 M93.75 28 C126.13 -0.4, 126.28 2.15, 156.25 28" stroke="#000000" stroke-width="1" fill="none"></path></g><g transform="translate(1744.800109863281 294.7003527881454) rotate(0 100.5 12.5)"><text x="0" y="18" font-family="Virgil, Segoe UI Emoji" font-size="20px" fill="#000000" text-anchor="start" style="white-space: pre;" direction="ltr">Server Initial State</text></g><g stroke-linecap="round" transform="translate(288.7999877929687 226.90036499517663) rotate(0 75.20001220703125 69.59999084472653)"><path d="M80.94 0.19 C91.38 -0.12, 104.83 4.29, 114.26 9.37 C123.68 14.46, 131.54 22.35, 137.5 30.7 C143.47 39.05, 148.56 49.53, 150.04 59.47 C151.52 69.41, 149.71 80.59, 146.4 90.33 C143.09 100.07, 137.68 110.37, 130.17 117.93 C122.66 125.49, 111.53 132.28, 101.34 135.71 C91.14 139.14, 79.94 139.67, 69.03 138.53 C58.11 137.38, 45.35 133.85, 35.86 128.85 C26.37 123.85, 18.11 116.68, 12.1 108.53 C6.09 100.38, 1.26 89.9, -0.2 79.94 C-1.66 69.97, -0.09 58.34, 3.34 48.73 C6.77 39.11, 12.7 29.72, 20.38 22.25 C28.06 14.78, 38.88 7.63, 49.42 3.89 C59.95 0.14, 77.49 -0.09, 83.6 -0.24 C89.72 -0.4, 86.4 1.61, 86.11 2.96 M42.82 6.52 C52.11 1.55, 66.8 1.04, 77.81 1 C88.82 0.95, 99.37 1.6, 108.87 6.24 C118.37 10.88, 128.26 20.71, 134.81 28.81 C141.35 36.92, 146.03 45.32, 148.16 54.86 C150.29 64.41, 150.32 76.4, 147.59 86.07 C144.87 95.74, 138.43 105.07, 131.78 112.88 C125.14 120.69, 117.27 128.53, 107.71 132.92 C98.16 137.31, 85.33 139.35, 74.45 139.19 C63.56 139.04, 52.07 136.48, 42.41 132.01 C32.75 127.53, 23.04 120.39, 16.47 112.35 C9.89 104.32, 5.37 93.55, 2.98 83.79 C0.59 74.03, -0.5 63.45, 2.13 53.79 C4.76 44.13, 11.83 33.75, 18.75 25.84 C25.68 17.93, 39.21 9.44, 43.67 6.34 C48.13 3.23, 45.18 6.31, 45.51 7.22" stroke="#000000" stroke-width="1" fill="none"></path></g><g stroke-linecap="round"><g transform="translate(536.7999877929688 478.1003466846297) rotate(0 -63.59900662558147 -68.88550598460378)"><path d="M-0.66 -0.42 C-20.47 -21.82, -100.27 -107.12, -119.56 -128.24 C-138.85 -149.36, -116.96 -127.18, -116.4 -127.12 M1.2 -1.68 C-18.68 -22.91, -100.59 -105.61, -120.28 -126.83 C-139.97 -148.05, -117.73 -129.02, -116.96 -128.99" stroke="#000000" stroke-width="1" fill="none"></path></g><g transform="translate(536.7999877929688 478.1003466846297) rotate(0 -63.59900662558147 -68.88550598460378)"><path d="M-118.55 -129.39 C-118.15 -129.28, -117.62 -129.14, -116.94 -128.91 M-118.54 -129.52 C-117.87 -129.28, -117.39 -129.19, -117 -129.01" stroke="#000000" stroke-width="1" fill="none"></path></g><g transform="translate(536.7999877929688 478.1003466846297) rotate(0 -63.59900662558147 -68.88550598460378)"><path d="M-117.89 -130.27 C-117.65 -129.95, -117.29 -129.59, -116.94 -128.91 M-117.89 -130.39 C-117.46 -129.83, -117.22 -129.41, -117 -129.01" stroke="#000000" stroke-width="1" fill="none"></path></g></g><mask></mask><g transform="translate(334.914297921317 195.84324044858067) rotate(0 92 25)"><text x="0" y="17" font-family="Virgil, Segoe UI Emoji" font-size="20px" fill="#000000" text-anchor="start" style="white-space: pre;" direction="ltr">Drawing on Canvas</text><text x="0" y="42" font-family="Virgil, Segoe UI Emoji" font-size="20px" fill="#000000" text-anchor="start" style="white-space: pre;" direction="ltr"></text></g><g stroke-linecap="round"><g transform="translate(282.4000854492187 298.10034668462964) rotate(0 64.12862093660601 -143.66561422542975)"><path d="M-0.52 0.77 C10.39 -46.57, 45.01 -266.07, 66.14 -285.02 C87.27 -303.97, 116.17 -141.56, 126.27 -112.92 M1.41 0.13 C12.14 -47.45, 44.23 -267.95, 65.46 -286.63 C86.69 -305.3, 118.53 -140.93, 128.77 -111.91" stroke="#000000" stroke-width="1" fill="none"></path></g><g transform="translate(282.4000854492187 298.10034668462964) rotate(0 64.12862093660601 -143.66561422542975)"><path d="M112.98 -135.73 C119.28 -128.88, 122.79 -119.17, 127.37 -112.4 M111.12 -136.59 C115.95 -132.21, 118.94 -127.05, 129.6 -111.94" stroke="#000000" stroke-width="1" fill="none"></path></g><g transform="translate(282.4000854492187 298.10034668462964) rotate(0 64.12862093660601 -143.66561422542975)"><path d="M132.83 -140.94 C131.95 -132.3, 128.32 -120.71, 127.37 -112.4 M130.97 -141.79 C131.68 -136.47, 130.57 -130.23, 129.6 -111.94" stroke="#000000" stroke-width="1" fill="none"></path></g></g><mask></mask><g stroke-linecap="round" transform="translate(704.7999877929688 711.7003222705672) rotate(0 62.400024414062386 61.6000061035156)"><path d="M86.75 4.54 C95.57 7.17, 103.61 14.85, 109.75 22.17 C115.89 29.49, 121.48 39.17, 123.59 48.46 C125.7 57.76, 124.96 68.81, 122.4 77.93 C119.84 87.05, 114.89 96.15, 108.23 103.18 C101.56 110.2, 91.4 116.83, 82.4 120.08 C73.4 123.32, 63.77 124.08, 54.22 122.65 C44.67 121.21, 33.07 117.01, 25.11 111.48 C17.15 105.94, 10.7 97.9, 6.45 89.42 C2.19 80.95, -0.71 70.38, -0.41 60.6 C-0.1 50.82, 3.59 39.3, 8.28 30.75 C12.98 22.2, 19.7 14.52, 27.76 9.29 C35.81 4.06, 45.23 -0.72, 56.6 -0.6 C67.97 -0.48, 87.74 6.98, 95.98 10.02 C104.22 13.05, 106.64 16.69, 106.05 17.61 M91.25 7.59 C99.95 10.95, 109.3 18.73, 114.58 26.14 C119.86 33.55, 121.8 42.79, 122.95 52.06 C124.1 61.32, 124.36 72.75, 121.46 81.74 C118.56 90.73, 112.76 99.67, 105.54 106.02 C98.32 112.36, 87.69 117.05, 78.12 119.83 C68.55 122.61, 57.41 124.4, 48.13 122.69 C38.84 120.98, 29.84 115.83, 22.43 109.56 C15.01 103.3, 7.37 94.01, 3.64 85.08 C-0.1 76.14, -0.86 65.31, 0.03 55.95 C0.93 46.6, 3.81 36.86, 9 28.93 C14.19 21, 22.45 13.2, 31.16 8.38 C39.86 3.55, 51.16 0.4, 61.22 -0.01 C71.28 -0.43, 86.8 4.5, 91.52 5.9 C96.25 7.3, 90.22 7.28, 89.59 8.41" stroke="#000000" stroke-width="1" fill="none"></path></g><g stroke-linecap="round"><g transform="translate(668.2776460904627 590.2468052645931) rotate(0 40.83133412862799 61.50606287710096)"><path d="M1.12 0.78 C14.85 21.21, 67.87 102.44, 81.42 122.87 M0.24 0.14 C13.9 20.2, 66.76 100.85, 80.4 121.1" stroke="#000000" stroke-width="1" fill="none"></path></g><g transform="translate(668.2776460904627 590.2468052645931) rotate(0 40.83133412862799 61.50606287710096)"><path d="M57.55 103.05 C62.65 108.3, 68.7 111.35, 78.73 119.73 M55.62 103.09 C63.09 108.6, 72.42 115, 81.15 120.56" stroke="#000000" stroke-width="1" fill="none"></path></g><g transform="translate(668.2776460904627 590.2468052645931) rotate(0 40.83133412862799 61.50606287710096)"><path d="M74.65 91.71 C76.07 99.57, 78.43 105.07, 78.73 119.73 M72.72 91.75 C74.62 101.01, 78.45 111.07, 81.15 120.56" stroke="#000000" stroke-width="1" fill="none"></path></g></g><mask></mask><g transform="translate(738.4000854492188 637.1003466846297) rotate(0 60.99999999999994 25)"><text x="0" y="17" font-family="Virgil, Segoe UI Emoji" font-size="20px" fill="#000000" text-anchor="start" style="white-space: pre;" direction="ltr">Set Host</text><text x="0" y="42" font-family="Virgil, Segoe UI Emoji" font-size="20px" fill="#000000" text-anchor="start" style="white-space: pre;" direction="ltr">Start Client</text></g><g stroke-linecap="round"><g transform="translate(842.4000854492185 782.1003466846296) rotate(0 436.0854701135587 -155.24434060407333)"><path d="M1.01 -0.02 C146.08 -51.62, 724.96 -256.93, 869.73 -308.5 M0.08 -1.07 C145.61 -52.54, 726.75 -259.24, 872.09 -310.47" stroke="#000000" stroke-width="1" fill="none"></path></g><g transform="translate(842.4000854492185 782.1003466846296) rotate(0 436.0854701135587 -155.24434060407333)"><path d="M848.91 -292.51 C854.84 -297.5, 858.86 -299.74, 873.17 -309.8 M848.54 -292.02 C859.09 -298.89, 866.66 -305.84, 872.55 -311.26" stroke="#000000" stroke-width="1" fill="none"></path></g><g transform="translate(842.4000854492185 782.1003466846296) rotate(0 436.0854701135587 -155.24434060407333)"><path d="M842.06 -311.85 C849.82 -312.23, 855.49 -309.81, 873.17 -309.8 M841.69 -311.36 C854.78 -310.56, 865.07 -309.83, 872.55 -311.26" stroke="#000000" stroke-width="1" fill="none"></path></g></g><mask></mask><g transform="translate(1116.000061035156 573.1003466846297) rotate(0 110.5 12.5)"><text x="0" y="18" font-family="Virgil, Segoe UI Emoji" font-size="20px" fill="#000000" text-anchor="start" style="white-space: pre;" direction="ltr">Connection establishing</text></g><g stroke-linecap="round"><g transform="translate(1820.000061035156 561.300358891661) rotate(0 3.4996523263073414 142.6744194960827)"><path d="M1.13 0.74 C2.15 48.17, 5.69 237.92, 6.73 285.27 M0.27 0.08 C1.1 47.08, 4.81 235.72, 5.96 283.4" stroke="#000000" stroke-width="1" fill="none"></path></g><g transform="translate(1820.000061035156 561.300358891661) rotate(0 3.4996523263073414 142.6744194960827)"><path d="M-3.68 255.99 C-0.13 266.81, 2.96 274.41, 5.48 284.22 M-4.15 255.86 C-2.72 262.5, -0.38 268.94, 6.71 284.03" stroke="#000000" stroke-width="1" fill="none"></path></g><g transform="translate(1820.000061035156 561.300358891661) rotate(0 3.4996523263073414 142.6744194960827)"><path d="M16.84 255.54 C13.16 266.72, 9.02 274.47, 5.48 284.22 M16.37 255.42 C12.81 262.14, 10.16 268.69, 6.71 284.03" stroke="#000000" stroke-width="1" fill="none"></path></g></g><mask></mask><g stroke-linecap="round" transform="translate(1663.200012207031 858.9005786182233) rotate(0 152 116.79995727539062)"><path d="M191.25 29.25 M191.25 29.25 C217.69 48.94, 244.8 70.4, 265.75 87.75 M191.25 29.25 C210.89 45.95, 232.05 61.23, 265.75 87.75 M265.75 87.75 C303.24 116.04, 302.4 116.8, 265.75 146.25 M265.75 87.75 C305.53 116.23, 301.82 119.03, 265.75 146.25 M265.75 146.25 C245.2 163.93, 222.76 179.95, 191.25 204.35 M265.75 146.25 C247.42 161.06, 230.05 174.5, 191.25 204.35 M191.25 204.35 C152.47 235.43, 153.65 235.31, 114.75 204.35 M191.25 204.35 C150.71 234.48, 153.45 231.37, 114.75 204.35 M114.75 204.35 C88.1 185.51, 61.78 163.24, 38.25 146.25 M114.75 204.35 C86.95 182.22, 57.12 160.16, 38.25 146.25 M38.25 146.25 C0.25 117.22, 1.94 117.57, 38.25 87.75 M38.25 146.25 C2.27 116.23, -0.21 117.71, 38.25 87.75 M38.25 87.75 C56.33 73.21, 74.83 58.31, 114.75 29.25 M38.25 87.75 C55.63 73.05, 74.8 59.91, 114.75 29.25 M114.75 29.25 C153.74 -1.6, 154.85 0.38, 191.25 29.25 M114.75 29.25 C152.8 -2.1, 153.78 -1.07, 191.25 29.25" stroke="#000000" stroke-width="1" fill="none"></path></g><g transform="translate(1696.799865722656 838.7005053760358) rotate(0 109.5 25)"><text x="0" y="17" font-family="Virgil, Segoe UI Emoji" font-size="20px" fill="#000000" text-anchor="start" style="white-space: pre;" direction="ltr">Lobby Session created</text><text x="0" y="42" font-family="Virgil, Segoe UI Emoji" font-size="20px" fill="#000000" text-anchor="start" style="white-space: pre;" direction="ltr"></text></g><g stroke-linecap="round"><g transform="translate(768.7999877929685 838.1003466846296) rotate(0 4.131065234593109 143.8057119071949)"><path d="M-0.97 -0.04 C0.33 47.9, 5.53 239.27, 7.03 287.47 M0.72 -1.11 C2.45 47.01, 8.14 240.64, 9.24 288.72" stroke="#000000" stroke-width="1" fill="none"></path></g><g transform="translate(768.7999877929685 838.1003466846296) rotate(0 4.131065234593109 143.8057119071949)"><path d="M-1.85 259.2 C-0.11 267.57, 5.26 273.13, 7.82 289.04 M-2.02 261.25 C1.06 268.5, 5.37 277.35, 9.31 288.57" stroke="#000000" stroke-width="1" fill="none"></path></g><g transform="translate(768.7999877929685 838.1003466846296) rotate(0 4.131065234593109 143.8057119071949)"><path d="M18.67 258.66 C15.56 266.98, 16.09 272.67, 7.82 289.04 M18.49 260.71 C15.34 268.19, 13.41 277.2, 9.31 288.57" stroke="#000000" stroke-width="1" fill="none"></path></g></g><mask></mask><g stroke-linecap="round" transform="translate(644.0001831054688 1178.9003955127546) rotate(0 143.99999999999994 114.39996337890625)"><path d="M180 28.75 M180 28.75 C200.91 48.01, 222.22 64.45, 252 86.25 M180 28.75 C207.02 50.93, 235.59 72.88, 252 86.25 M252 86.25 C288.59 115.75, 288.08 115.41, 252 143.75 M252 86.25 C286.48 113.6, 287.96 116.23, 252 143.75 M252 143.75 C224.87 163.72, 201.52 183.97, 180 200.05 M252 143.75 C229.55 160.47, 208.1 178.82, 180 200.05 M180 200.05 C144.08 229.86, 143.4 230.05, 108 200.05 M180 200.05 C143.87 228.33, 143.08 227.16, 108 200.05 M108 200.05 C88.62 187.69, 71.86 172.09, 36 143.75 M108 200.05 C87.22 184.04, 67.37 167.83, 36 143.75 M36 143.75 C1.6 116.48, 0.18 114.69, 36 86.25 M36 143.75 C-0.95 115.88, 0.48 115.37, 36 86.25 M36 86.25 C59.52 67.24, 80 49.01, 108 28.75 M36 86.25 C57.79 70.21, 78.37 54.29, 108 28.75 M108 28.75 C142.54 -1.15, 145.69 -0.5, 180 28.75 M108 28.75 C145.23 -0.45, 144.93 -0.25, 180 28.75" stroke="#000000" stroke-width="1" fill="none"></path></g><g transform="translate(746.4000854492185 1144.300419926817) rotate(0 127.00000000000006 12.5)"><text x="0" y="18" font-family="Virgil, Segoe UI Emoji" font-size="20px" fill="#000000" text-anchor="start" style="white-space: pre;" direction="ltr">Connected to lobby state</text></g><g stroke-linecap="round" transform="translate(364.0000610351562 1120.500371098692) rotate(0 72.79998779296875 62.39999389648426)"><path d="M91.92 3.12 C101.88 4.48, 112.41 9.83, 120.51 15.76 C128.6 21.68, 136.32 30.56, 140.47 38.67 C144.62 46.78, 145.91 55.65, 145.4 64.4 C144.88 73.15, 142.5 82.99, 137.39 91.17 C132.28 99.35, 123.46 108.22, 114.73 113.51 C106 118.79, 95.17 121.44, 84.99 122.85 C74.81 124.26, 63.75 124.29, 53.62 121.96 C43.5 119.63, 32.05 114.8, 24.25 108.88 C16.45 102.96, 10.87 94.71, 6.81 86.46 C2.75 78.22, -0.55 68.33, -0.12 59.43 C0.31 50.53, 4.41 41.01, 9.39 33.04 C14.37 25.07, 21.38 16.95, 29.79 11.59 C38.19 6.24, 48.23 2.03, 59.84 0.93 C71.44 -0.18, 91.87 3.8, 99.42 4.98 C106.96 6.16, 105.62 7.24, 105.12 8.02 M74.69 -0.16 C84.28 -1.25, 95.09 1.49, 104.24 5.59 C113.39 9.69, 122.78 17.28, 129.6 24.46 C136.41 31.63, 142.96 39.94, 145.14 48.64 C147.31 57.35, 145.3 67.86, 142.64 76.68 C139.98 85.49, 135.87 94.33, 129.17 101.53 C122.46 108.73, 112.19 115.77, 102.39 119.89 C92.59 124.01, 80.62 126.44, 70.37 126.27 C60.11 126.1, 49.85 122.92, 40.86 118.85 C31.88 114.77, 23 109.07, 16.47 101.82 C9.94 94.57, 4.21 84.15, 1.69 75.34 C-0.83 66.53, -1.1 57.87, 1.33 48.94 C3.77 40, 9.37 29.13, 16.31 21.71 C23.25 14.29, 33.52 8.09, 42.99 4.4 C52.46 0.7, 67.83 0.17, 73.12 -0.47 C78.4 -1.1, 74.81 -0.43, 74.69 0.6" stroke="#000000" stroke-width="1" fill="none"></path></g><g stroke-linecap="round"><g transform="translate(676.0000610351562 1304.5003710986919) rotate(0 -84.92710498746953 -41.46003718003635)"><path d="M0.94 1.09 C-27.34 -13, -141.42 -69.82, -169.76 -84.01 M-0.02 0.62 C-28.46 -13.38, -142.53 -68.94, -170.8 -82.9" stroke="#000000" stroke-width="1" fill="none"></path></g><g transform="translate(676.0000610351562 1304.5003710986919) rotate(0 -84.92710498746953 -41.46003718003635)"><path d="M-139.15 -79.98 C-151.03 -79.58, -159.76 -83.29, -169.4 -84.8 M-141.73 -80.3 C-146.28 -81.13, -153.55 -81.51, -170.03 -82.8" stroke="#000000" stroke-width="1" fill="none"></path></g><g transform="translate(676.0000610351562 1304.5003710986919) rotate(0 -84.92710498746953 -41.46003718003635)"><path d="M-148.18 -61.55 C-157.51 -66.6, -163.6 -75.68, -169.4 -84.8 M-150.76 -61.87 C-153.44 -66.48, -158.84 -70.69, -170.03 -82.8" stroke="#000000" stroke-width="1" fill="none"></path></g></g><mask></mask><g transform="translate(290.4000854492187 1081.1004077197858) rotate(0 167 12.5)"><text x="0" y="18" font-family="Virgil, Segoe UI Emoji" font-size="20px" fill="#000000" text-anchor="start" style="white-space: pre;" direction="ltr">Drawing together on same canvas</text></g><g stroke-linecap="round" transform="translate(314.4000854492187 1352.1003466846296) rotate(0 68 76)"><path d="M41.92 5.63 C50.28 0.37, 62.62 -1.12, 72.5 -0.51 C82.37 0.11, 92.68 3.69, 101.15 9.32 C109.63 14.95, 117.8 24.18, 123.35 33.27 C128.9 42.37, 132.67 53.35, 134.44 63.87 C136.2 74.4, 136.77 85.76, 133.96 96.42 C131.14 107.08, 124.16 119.65, 117.55 127.82 C110.94 135.99, 103.29 141.44, 94.29 145.44 C85.3 149.45, 73.37 152.24, 63.59 151.86 C53.81 151.48, 44.28 148.69, 35.62 143.17 C26.95 137.66, 17.52 127.87, 11.6 118.77 C5.67 109.66, 1.43 99.08, 0.09 88.54 C-1.25 78, 0.68 66.24, 3.56 55.53 C6.43 44.83, 9.36 33.23, 17.35 24.32 C25.34 15.41, 44.63 5.69, 51.47 2.07 C58.32 -1.55, 58.39 1.25, 58.43 2.59 M60.64 1.28 C69.73 -0.48, 81.91 1.81, 91.48 5.68 C101.05 9.55, 111.18 16.92, 118.05 24.49 C124.92 32.07, 129.99 40.92, 132.68 51.14 C135.38 61.36, 135.51 74.71, 134.24 85.81 C132.96 96.91, 130.02 108.59, 125.05 117.75 C120.09 126.9, 113.02 135.28, 104.43 140.73 C95.85 146.19, 83.29 149.32, 73.54 150.49 C63.79 151.66, 55.06 151.37, 45.92 147.76 C36.79 144.15, 25.74 136.87, 18.71 128.86 C11.69 120.84, 7.05 110.3, 3.78 99.68 C0.51 89.06, -2.18 76.22, -0.89 65.13 C0.4 54.04, 6.06 42.42, 11.52 33.14 C16.98 23.87, 23.48 14.72, 31.88 9.48 C40.27 4.25, 57.13 2.88, 61.88 1.72 C66.63 0.57, 60.26 1.42, 60.36 2.56" stroke="#000000" stroke-width="1" fill="none"></path></g><g transform="translate(320.7999877929687 1315.9003955127546) rotate(0 84 12.5)"><text x="0" y="18" font-family="Virgil, Segoe UI Emoji" font-size="20px" fill="#000000" text-anchor="start" style="white-space: pre;" direction="ltr">Texting together</text></g><g stroke-linecap="round"><g transform="translate(696.7999877929688 1344.1003466846296) rotate(0 -120.35466307353693 38.64051089659324)"><path d="M-0.25 -0.72 C-40.7 12.11, -202.37 65.13, -242.53 78 M1.82 1.52 C-38.27 14.57, -199.71 63.81, -240.31 76.5" stroke="#000000" stroke-width="1" fill="none"></path></g><g transform="translate(696.7999877929688 1344.1003466846296) rotate(0 -120.35466307353693 38.64051089659324)"><path d="M-217.59 56.83 C-221.74 64.64, -231.73 69.77, -239.85 76.28 M-217.27 57.75 C-222.35 62.34, -225.29 64.91, -239.84 76.66" stroke="#000000" stroke-width="1" fill="none"></path></g><g transform="translate(696.7999877929688 1344.1003466846296) rotate(0 -120.35466307353693 38.64051089659324)"><path d="M-211.54 76.44 C-217.75 78.1, -229.63 77.08, -239.85 76.28 M-211.22 77.36 C-217.39 78, -221.56 76.59, -239.84 76.66" stroke="#000000" stroke-width="1" fill="none"></path></g></g><mask></mask><g stroke-linecap="round"><g transform="translate(893.6000366210935 1339.700383305723) rotate(0 158.87502358779318 61.95928639152089)"><path d="M-0.3 0.62 C52.75 21.13, 264.78 102.49, 318.05 122.73 M1.74 -0.1 C54.62 20.6, 264.04 103.54, 316.92 124.02" stroke="#000000" stroke-width="1" fill="none"></path></g><g transform="translate(893.6000366210935 1339.700383305723) rotate(0 158.87502358779318 61.95928639152089)"><path d="M287.96 122.69 C294.59 125.04, 301.89 123.48, 317.71 122.91 M286.19 123.85 C297.43 123.25, 307.42 123.1, 316.16 123.25" stroke="#000000" stroke-width="1" fill="none"></path></g><g transform="translate(893.6000366210935 1339.700383305723) rotate(0 158.87502358779318 61.95928639152089)"><path d="M295.45 103.59 C299.92 111.3, 305.11 115.11, 317.71 122.91 M293.69 104.74 C302.49 110.76, 309.91 117.18, 316.16 123.25" stroke="#000000" stroke-width="1" fill="none"></path></g></g><mask></mask><g stroke-linecap="round" transform="translate(1223.2001342773435 1435.7004443408794) rotate(0 95.99993896484375 79.20001220703125)"><path d="M105.44 -0.63 C117.62 -0.85, 130.52 5.48, 141.67 10.96 C152.83 16.45, 164.43 23.99, 172.38 32.28 C180.33 40.58, 186.34 50.37, 189.36 60.76 C192.38 71.14, 193.1 83.86, 190.5 94.59 C187.91 105.31, 181.39 116.34, 173.8 125.1 C166.21 133.86, 155.84 141.76, 144.95 147.16 C134.06 152.56, 121.23 156.21, 108.46 157.49 C95.68 158.77, 80.98 157.8, 68.31 154.83 C55.64 151.85, 42.31 146.52, 32.43 139.63 C22.55 132.73, 14.58 123.41, 9.03 113.46 C3.48 103.51, -0.61 90.94, -0.88 79.92 C-1.15 68.91, 2.01 57.13, 7.4 47.34 C12.8 37.56, 21.77 28.32, 31.51 21.21 C41.25 14.1, 52.34 7.86, 65.84 4.68 C79.34 1.5, 103.32 2.3, 112.5 2.15 C121.68 2.01, 121.1 2.53, 120.92 3.81 M82.62 -0.01 C94.67 -2.5, 109.6 1, 121.98 3.78 C134.36 6.56, 146.8 10, 156.91 16.67 C167.01 23.34, 176.69 34.08, 182.6 43.8 C188.5 53.52, 191.7 64.14, 192.33 74.99 C192.96 85.83, 191.36 98.83, 186.39 108.86 C181.42 118.89, 171.93 127.8, 162.5 135.16 C153.07 142.51, 142 149.01, 129.82 153 C117.64 156.99, 102.66 159.5, 89.43 159.12 C76.2 158.73, 61.68 155.89, 50.46 150.67 C39.24 145.45, 30.08 136.47, 22.11 127.79 C14.13 119.12, 6.05 108.91, 2.61 98.63 C-0.82 88.34, -0.93 76.63, 1.5 66.07 C3.94 55.5, 9.93 44.28, 17.21 35.24 C24.49 26.2, 34.64 17.61, 45.18 11.82 C55.72 6.03, 74.46 1.93, 80.45 0.5 C86.43 -0.92, 80.59 2.03, 81.09 3.28" stroke="#000000" stroke-width="1" fill="none"></path></g><g transform="translate(1272.800109863281 1388.300480961973) rotate(0 59.5 12.5)"><text x="0" y="18" font-family="Virgil, Segoe UI Emoji" font-size="20px" fill="#000000" text-anchor="start" style="white-space: pre;" direction="ltr">start Game</text></g><g stroke-linecap="round" transform="translate(1687.200012207031 1454.9003955127544) rotate(0 116 114.39996337890625)"><path d="M146.25 28.75 M146.25 28.75 C159.06 42.36, 169.88 51, 202.75 86.25 M146.25 28.75 C164.39 49.12, 184.61 67.54, 202.75 86.25 M202.75 86.25 C232.86 113.29, 233.11 116.77, 202.75 143.75 M202.75 86.25 C231.45 116.59, 233.88 116.24, 202.75 143.75 M202.75 143.75 C184.15 162.6, 167.08 177.07, 146.25 200.05 M202.75 143.75 C188.03 158.16, 173.3 173.39, 146.25 200.05 M146.25 200.05 C115.68 227.23, 116.71 227.36, 87.75 200.05 M146.25 200.05 C116.75 229.98, 117.43 227.83, 87.75 200.05 M87.75 200.05 C68.93 181.06, 48.04 163.77, 29.25 143.75 M87.75 200.05 C64.83 178.16, 43.68 158.67, 29.25 143.75 M29.25 143.75 C1.27 114.72, 0.61 114.09, 29.25 86.25 M29.25 143.75 C1.94 116.85, 0.03 117.17, 29.25 86.25 M29.25 86.25 C45.38 71.83, 59.16 54.99, 87.75 28.75 M29.25 86.25 C52.17 64.31, 76.19 41.71, 87.75 28.75 M87.75 28.75 C116.55 -1.47, 116.5 1.75, 146.25 28.75 M87.75 28.75 C118.22 -2.06, 116.93 -0.41, 146.25 28.75" stroke="#000000" stroke-width="1" fill="none"></path></g><g transform="translate(1816.2286812918526 1556.1289547342942) rotate(0 73.5 12.5)"><text x="0" y="18" font-family="Virgil, Segoe UI Emoji" font-size="20px" fill="#000000" text-anchor="start" style="white-space: pre;" direction="ltr">skribbl io round</text></g><g stroke-linecap="round"><g transform="translate(1410.0000610351565 1529.5289181132011) rotate(0 210.43800880828064 -221.9024795422264)"><path d="M0.97 0.01 C68.14 -74.11, 343.98 -436.48, 402.48 -443.71 C460.98 -450.93, 360.18 -110, 351.98 -43.36 M0.01 -1.02 C67.17 -74.46, 343.07 -435.08, 402.13 -442.43 C461.19 -449.78, 362.45 -111.18, 354.38 -45.13" stroke="#000000" stroke-width="1" fill="none"></path></g><g transform="translate(1410.0000610351565 1529.5289181132011) rotate(0 210.43800880828064 -221.9024795422264)"><path d="M350.3 -72.96 C350.74 -68.88, 354.45 -59.19, 355.36 -45.91 M350.04 -75.37 C352.21 -66.99, 353.34 -60.18, 353.64 -45.38" stroke="#000000" stroke-width="1" fill="none"></path></g><g transform="translate(1410.0000610351565 1529.5289181132011) rotate(0 210.43800880828064 -221.9024795422264)"><path d="M370.36 -68.64 C365.66 -65.5, 364.26 -56.91, 355.36 -45.91 M370.1 -71.05 C367.21 -63.87, 363.33 -58.14, 353.64 -45.38" stroke="#000000" stroke-width="1" fill="none"></path></g></g><mask></mask><g stroke-linecap="round" transform="translate(388.0000610351562 1708.100529790098) rotate(0 115.20001220703114 119.99996948242188)"><path d="M145 30 M145 30 C162.92 50.75, 184.51 69.55, 201.4 90 M145 30 C165.83 54.4, 188.09 77.55, 201.4 90 M201.4 90 C229.11 120.16, 229.15 120.89, 201.4 150 M201.4 90 C228.8 121.32, 231.42 118.54, 201.4 150 M201.4 150 C183.61 167.57, 168.12 182, 145 210 M201.4 150 C186.4 166.89, 171.9 181.69, 145 210 M145 210 C114.62 241.96, 116.09 241.59, 87 210 M145 210 C116.14 241, 117.13 241.91, 87 210 M87 210 C70.13 194.03, 53.07 174.71, 29 150 M87 210 C66.26 190.03, 47.23 168.15, 29 150 M29 150 C-2 118.91, 1.34 121.53, 29 90 M29 150 C1.58 119.01, -0.15 119.69, 29 90 M29 90 C49.2 69.35, 71.52 45.94, 87 30 M29 90 C46.19 72.05, 62.86 54.96, 87 30 M87 30 C114.86 1.95, 114.78 -0.42, 145 30 M87 30 C115.47 -2.23, 114.03 1.96, 145 30" stroke="#000000" stroke-width="1" fill="none"></path></g><g transform="translate(1519.9222344292536 1345.8924284872405) rotate(0 146.5 12.5)"><text x="0" y="18" font-family="Virgil, Segoe UI Emoji" font-size="20px" fill="#000000" text-anchor="start" style="white-space: pre;" direction="ltr">create scribbl round on start</text></g><g stroke-linecap="round" transform="translate(871.2000732421873 1699.3002673389262) rotate(0 115.20001220703114 119.99996948242188)"><path d="M145 30 M145 30 C160.57 48.58, 177.62 64.05, 201.4 90 M145 30 C158.21 43.89, 171.31 58.39, 201.4 90 M201.4 90 C230.56 119.74, 228.68 121.85, 201.4 150 M201.4 90 C231.31 119.4, 229.1 119.06, 201.4 150 M201.4 150 C188.69 162.2, 175.32 178.36, 145 210 M201.4 150 C187.34 166.06, 172.72 180.18, 145 210 M145 210 C114.9 238.61, 114.07 240.65, 87 210 M145 210 C117.21 240.69, 117.7 239.9, 87 210 M87 210 C76.15 197.78, 64.65 185.7, 29 150 M87 210 C69.57 193.74, 53.9 176.3, 29 150 M29 150 C1.91 121.32, 1.16 118.6, 29 90 M29 150 C1.13 119.22, -0.55 119.66, 29 90 M29 90 C43.1 77.88, 55.21 64.94, 87 30 M29 90 C48.93 69.32, 68.93 49.09, 87 30 M87 30 C117.26 -0.18, 114.92 -0.8, 145 30 M87 30 C114.35 1.51, 117.19 1.15, 145 30" stroke="#000000" stroke-width="1" fill="none"></path></g><g transform="translate(944.7999877929685 1655.900334477598) rotate(0 35 12.5)"><text x="0" y="18" font-family="Virgil, Segoe UI Emoji" font-size="20px" fill="#000000" text-anchor="start" style="white-space: pre;" direction="ltr">Drawer</text></g><g transform="translate(460.0000610351562 1667.1002246143169) rotate(0 40 12.5)"><text x="0" y="18" font-family="Virgil, Segoe UI Emoji" font-size="20px" fill="#000000" text-anchor="start" style="white-space: pre;" direction="ltr">Guesser</text></g><g stroke-linecap="round" transform="translate(171.99999999999994 1963.3575139558347) rotate(0 63.200042724609375 54.4000244140625)"><path d="M32.27 7.39 C39.9 2.81, 51.85 0.22, 61.79 0.02 C71.74 -0.17, 82.99 2.34, 91.94 6.21 C100.9 10.07, 109.76 16.32, 115.53 23.22 C121.3 30.12, 125.34 39.21, 126.58 47.62 C127.82 56.04, 126.32 65.93, 122.97 73.73 C119.61 81.52, 113.62 88.69, 106.44 94.4 C99.26 100.12, 89.65 105.9, 79.88 108.03 C70.11 110.16, 57.38 109.38, 47.84 107.18 C38.29 104.97, 29.9 100.36, 22.6 94.81 C15.3 89.26, 7.86 81.64, 4.02 73.88 C0.18 66.12, -1.57 56.7, -0.45 48.25 C0.67 39.8, 4.58 30.26, 10.76 23.17 C16.94 16.08, 31.34 8.9, 36.65 5.72 C41.97 2.55, 41.97 3.54, 42.67 4.11 M59.07 1.11 C68.17 -0.16, 79.2 1.44, 88.12 4.61 C97.04 7.78, 106.56 13.51, 112.58 20.12 C118.6 26.73, 122.33 35.74, 124.26 44.27 C126.18 52.8, 126.95 63.1, 124.15 71.28 C121.34 79.47, 114.16 87.38, 107.42 93.39 C100.68 99.39, 93.01 104.77, 83.7 107.32 C74.39 109.87, 61.59 110.27, 51.57 108.68 C41.55 107.09, 31.18 103.24, 23.59 97.78 C15.99 92.31, 9.99 83.37, 6.01 75.87 C2.03 68.38, -0.54 60.94, -0.28 52.8 C-0.02 44.67, 2.45 34.6, 7.57 27.06 C12.69 19.52, 22.02 12.14, 30.43 7.57 C38.84 2.99, 52.98 0.46, 58 -0.41 C63.03 -1.27, 60.56 1.61, 60.59 2.4" stroke="#000000" stroke-width="1" fill="none"></path></g><g transform="translate(10 1958.300480961973) rotate(0 89 12.5)"><text x="0" y="18" font-family="Virgil, Segoe UI Emoji" font-size="20px" fill="#000000" text-anchor="start" style="white-space: pre;" direction="ltr">Guesses the word</text></g><g stroke-linecap="round"><g transform="translate(406.51427350725436 1840.2146568129774) rotate(0 -76.69923630912785 57.4076866826648)"><path d="M-0.84 -0.06 C-26.42 19.34, -127.97 96.65, -153.58 115.95 M0.92 -1.14 C-24.77 17.96, -128.23 95.08, -154.31 114.23" stroke="#000000" stroke-width="1" fill="none"></path></g><g transform="translate(406.51427350725436 1840.2146568129774) rotate(0 -76.69923630912785 57.4076866826648)"><path d="M-137.86 89.9 C-141.35 95.38, -146.43 105.36, -152.9 113.52 M-137.55 88.48 C-143.93 98.93, -150.37 107.08, -154.19 113.95" stroke="#000000" stroke-width="1" fill="none"></path></g><g transform="translate(406.51427350725436 1840.2146568129774) rotate(0 -76.69923630912785 57.4076866826648)"><path d="M-125.65 106.39 C-132.59 107.04, -141.18 112.28, -152.9 113.52 M-125.34 104.97 C-135.88 109.7, -146.58 112.11, -154.19 113.95" stroke="#000000" stroke-width="1" fill="none"></path></g></g><mask></mask><g stroke-linecap="round"><g transform="translate(1104.7999877929685 1808.9003955127544) rotate(0 68.60627978225705 -7.036297551542589)"><path d="M-0.14 0.47 C22.87 -1.9, 115.79 -11.98, 138.89 -14.54 M-1.68 -0.33 C21.08 -2.47, 114.01 -10.83, 137.78 -13.08" stroke="#000000" stroke-width="1" fill="none"></path></g><g transform="translate(1104.7999877929685 1808.9003955127544) rotate(0 68.60627978225705 -7.036297551542589)"><path d="M111.43 -0.79 C120.4 -6.19, 129.79 -8.69, 136.49 -11.35 M111.59 0.65 C119.92 -6.28, 131.53 -9.74, 136.82 -13.71" stroke="#000000" stroke-width="1" fill="none"></path></g><g transform="translate(1104.7999877929685 1808.9003955127544) rotate(0 68.60627978225705 -7.036297551542589)"><path d="M109.55 -21.23 C119.15 -19.13, 129.23 -14.14, 136.49 -11.35 M109.71 -19.79 C118.77 -19.03, 131.08 -14.78, 136.82 -13.71" stroke="#000000" stroke-width="1" fill="none"></path></g></g><mask></mask><g stroke-linecap="round" transform="translate(1268.000061035156 1740.1003466846294) rotate(0 100 84.79998779296875)"><path d="M141.77 6.95 C153.44 9.9, 164.95 19.12, 173.44 27.08 C181.93 35.05, 188.44 44.54, 192.7 54.71 C196.97 64.88, 199.25 77.15, 199.02 88.12 C198.79 99.09, 196.53 110.84, 191.31 120.54 C186.1 130.25, 177.12 139.24, 167.73 146.36 C158.34 153.48, 146.7 159.27, 134.98 163.27 C123.25 167.27, 109.93 170.58, 97.37 170.36 C84.8 170.14, 71.25 166.48, 59.6 161.94 C47.95 157.4, 36.32 150.93, 27.47 143.11 C18.62 135.3, 10.94 125.25, 6.49 115.06 C2.04 104.88, 0.51 92.85, 0.78 82 C1.05 71.16, 3.01 59.73, 8.1 50 C13.18 40.27, 21.96 31.18, 31.28 23.63 C40.6 16.08, 52.08 8.47, 64.01 4.7 C75.95 0.93, 89.1 0.22, 102.88 1.03 C116.66 1.83, 138.99 7.37, 146.7 9.51 C154.41 11.65, 149.97 12.78, 149.14 13.87 M51.25 9.67 C61.25 3.51, 78.35 1.74, 91.05 0.91 C103.74 0.08, 115.22 1.79, 127.42 4.7 C139.62 7.62, 154.05 11.91, 164.27 18.41 C174.5 24.92, 183.1 33.91, 188.76 43.74 C194.42 53.57, 196.86 66.67, 198.24 77.4 C199.62 88.12, 200.44 98.07, 197.04 108.09 C193.63 118.12, 186.04 128.95, 177.82 137.55 C169.6 146.14, 159.18 154.34, 147.7 159.66 C136.22 164.98, 121.48 168.41, 108.94 169.48 C96.4 170.55, 84.27 169.48, 72.45 166.07 C60.63 162.67, 48.32 156.09, 38.02 149.07 C27.72 142.05, 16.67 133.46, 10.63 123.95 C4.59 114.43, 2.88 102.47, 1.79 91.99 C0.7 81.51, 0.53 71.02, 4.1 61.06 C7.66 51.11, 15.04 40.69, 23.17 32.23 C31.3 23.77, 47.81 13.9, 52.87 10.3 C57.92 6.71, 52.95 9.66, 53.49 10.67" stroke="#000000" stroke-width="1" fill="none"></path></g><g stroke-linecap="round"><g transform="translate(1735.200012207031 1620.1003466846294) rotate(0 -133.94355538273703 82.93809044902218)"><path d="M0.3 0.2 C-44.36 27.73, -222.79 137.61, -267.23 164.99 M-1 -0.75 C-45.88 27.03, -223.92 138.9, -268.19 166.62" stroke="#000000" stroke-width="1" fill="none"></path></g><g transform="translate(1735.200012207031 1620.1003466846294) rotate(0 -133.94355538273703 82.93809044902218)"><path d="M-249.44 142.91 C-256.14 153, -263.64 158.67, -268.26 166.34 M-249.85 143.94 C-255.67 151.24, -263.58 160.28, -267.82 165.66" stroke="#000000" stroke-width="1" fill="none"></path></g><g transform="translate(1735.200012207031 1620.1003466846294) rotate(0 -133.94355538273703 82.93809044902218)"><path d="M-238.53 160.29 C-249.12 164.15, -260.55 163.55, -268.26 166.34 M-238.95 161.32 C-248.56 162.35, -260.34 165.22, -267.82 165.66" stroke="#000000" stroke-width="1" fill="none"></path></g></g><mask></mask><g transform="translate(1461.600402832031 1649.500187993223) rotate(0 96 12.5)"><text x="0" y="18" font-family="Virgil, Segoe UI Emoji" font-size="20px" fill="#000000" text-anchor="start" style="white-space: pre;" direction="ltr">Send word selection</text></g><g transform="translate(1063.200012207031 1716.7002612354106) rotate(0 118 25)"><text x="0" y="17" font-family="Virgil, Segoe UI Emoji" font-size="20px" fill="#000000" text-anchor="start" style="white-space: pre;" direction="ltr">Selects a word to draw</text><text x="0" y="42" font-family="Virgil, Segoe UI Emoji" font-size="20px" fill="#000000" text-anchor="start" style="white-space: pre;" direction="ltr"></text></g><g stroke-linecap="round"><g transform="translate(1309.600158691406 1892.5003710986919) rotate(0 -79.62230520299192 89.90534697306225)"><path d="M-1.06 1.09 C4.03 29.65, 64.97 147.17, 31.37 171.76 C-2.23 196.36, -163.51 152.36, -202.66 148.65 M0.58 0.61 C6 28.79, 67.7 145.06, 33.75 169.94 C-0.2 194.82, -163.6 153.66, -203.14 149.88" stroke="#000000" stroke-width="1" fill="none"></path></g><g transform="translate(1309.600158691406 1892.5003710986919) rotate(0 -79.62230520299192 89.90534697306225)"><path d="M-171.81 143.5 C-183.47 147.15, -195.48 147.61, -202.02 148.48 M-173.31 144.78 C-182.13 146.87, -191.66 146.86, -202.27 150.79" stroke="#000000" stroke-width="1" fill="none"></path></g><g transform="translate(1309.600158691406 1892.5003710986919) rotate(0 -79.62230520299192 89.90534697306225)"><path d="M-175.28 163.73 C-185.74 159.99, -196.48 153.05, -202.02 148.48 M-176.79 165.01 C-184.35 160.8, -192.8 154.49, -202.27 150.79" stroke="#000000" stroke-width="1" fill="none"></path></g></g><mask></mask><g stroke-linecap="round" transform="translate(978.4000854492185 1967.7003222705669) rotate(0 64 61.60003662109375)"><path d="M50.53 2.28 C59.25 -0.74, 69.81 -0.33, 79.33 1.84 C88.85 4.01, 100.26 8.86, 107.64 15.31 C115.02 21.77, 120.22 31.41, 123.59 40.57 C126.97 49.73, 129.14 60.92, 127.91 70.29 C126.69 79.67, 122.1 89, 116.24 96.83 C110.39 104.67, 101.64 113.01, 92.77 117.3 C83.91 121.59, 72.81 122.81, 63.06 122.57 C53.31 122.33, 42.94 120.18, 34.26 115.86 C25.58 111.54, 16.5 104.65, 10.99 96.63 C5.48 88.62, 2.3 77.53, 1.22 67.77 C0.14 58.01, 0.9 46.96, 4.52 38.07 C8.14 29.17, 14.8 20.6, 22.95 14.39 C31.09 8.17, 47.32 3.09, 53.39 0.79 C59.47 -1.52, 59.21 -0.35, 59.41 0.53 M94.93 6.13 C103.82 9.4, 110.74 19.35, 115.94 27.2 C121.14 35.06, 124.95 43.76, 126.13 53.28 C127.3 62.8, 126.18 75.16, 123.01 84.3 C119.84 93.44, 114.59 101.8, 107.09 108.11 C99.59 114.43, 87.87 119.87, 78.02 122.18 C68.17 124.5, 57.37 124.54, 47.99 122 C38.6 119.47, 29.18 113.55, 21.69 106.98 C14.2 100.41, 6.81 91.62, 3.04 82.59 C-0.72 73.57, -2.47 62.09, -0.9 52.84 C0.68 43.6, 6.59 34.95, 12.49 27.12 C18.4 19.28, 26.1 10.49, 34.56 5.82 C43.02 1.16, 53.24 -1.08, 63.27 -0.89 C73.31 -0.71, 90.03 5.37, 94.77 6.95 C99.51 8.53, 92.16 7.66, 91.72 8.58" stroke="#000000" stroke-width="1" fill="none"></path></g><g transform="translate(959.2001342773435 1939.5003710986919) rotate(0 74 12.5)"><text x="0" y="18" font-family="Virgil, Segoe UI Emoji" font-size="20px" fill="#000000" text-anchor="start" style="white-space: pre;" direction="ltr">Starts drawing</text></g><g stroke-linecap="round"><g transform="translate(1240.9507814437625 1575.6925383505227) rotate(0 -109.89234540211032 75.2643656218878)"><path d="M-1.16 -0.46 C-38.06 24.81, -183.7 126.85, -220.22 152.28 M0.43 -1.75 C-36.17 23.07, -180.86 124.41, -217.83 150.28" stroke="#000000" stroke-width="1" fill="none"></path></g><g transform="translate(1240.9507814437625 1575.6925383505227) rotate(0 -109.89234540211032 75.2643656218878)"><path d="M-201.38 124.68 C-206.96 134.25, -214.12 144.28, -217.32 149.4 M-200.44 126.39 C-203.95 130.03, -206.94 135.06, -217.43 150.32" stroke="#000000" stroke-width="1" fill="none"></path></g><g transform="translate(1240.9507814437625 1575.6925383505227) rotate(0 -109.89234540211032 75.2643656218878)"><path d="M-189.62 141.49 C-199.98 144.25, -211.83 147.57, -217.32 149.4 M-188.68 143.21 C-194.84 143.15, -200.34 144.59, -217.43 150.32" stroke="#000000" stroke-width="1" fill="none"></path></g></g><mask></mask><g transform="translate(1007.7624863760618 1615.8247738657478) rotate(325.97185101193736 96 12.5)"><text x="0" y="18" font-family="Virgil, Segoe UI Emoji" font-size="20px" fill="#000000" text-anchor="start" style="white-space: pre;" direction="ltr">Select first drawer</text></g><g stroke-linecap="round"><g transform="translate(517.6000366210938 1950.1003466846294) rotate(0 111.60712788870097 171.8859778403213)"><path d="M-0.66 0.45 C9.67 39.17, 23.8 175.82, 60.82 232.95 C97.85 290.08, 194.72 324.91, 221.47 343.22 M1.19 -0.36 C11.46 38.45, 22.77 176.73, 59.89 234.14 C97 291.56, 197.02 325.94, 223.88 344.13" stroke="#000000" stroke-width="1" fill="none"></path></g><g transform="translate(517.6000366210938 1950.1003466846294) rotate(0 111.60712788870097 171.8859778403213)"><path d="M194.88 340.27 C199.15 339.64, 205.04 340.2, 221.93 345.79 M193.74 339.63 C204.63 341.73, 212.71 343.36, 224.86 344.11" stroke="#000000" stroke-width="1" fill="none"></path></g><g transform="translate(517.6000366210938 1950.1003466846294) rotate(0 111.60712788870097 171.8859778403213)"><path d="M204.35 322.06 C206.78 325.11, 210.73 329.39, 221.93 345.79 M203.21 321.43 C211.06 329.39, 216.04 336.98, 224.86 344.11" stroke="#000000" stroke-width="1" fill="none"></path></g></g><mask></mask><g transform="translate(762.4000854492185 2216.300419926817) rotate(0 82.00000000000006 12.5)"><text x="0" y="18" font-family="Virgil, Segoe UI Emoji" font-size="20px" fill="#000000" text-anchor="start" style="white-space: pre;" direction="ltr">On word guessed</text></g><g stroke-linecap="round" transform="translate(759.200012207031 2282.500371098692) rotate(0 118.3999633789063 107.19998168945312)"><path d="M148.75 27 M148.75 27 C168.99 46.58, 189.89 62.72, 207.05 81 M148.75 27 C161.99 39.22, 176.28 51.9, 207.05 81 M207.05 81 C236.23 109.28, 238.46 109.59, 207.05 135 M207.05 81 C237.24 108.84, 238.77 109.79, 207.05 135 M207.05 135 C192.09 149.42, 177.65 160.53, 148.75 187.4 M207.05 135 C194.49 146.2, 182.51 159.16, 148.75 187.4 M148.75 187.4 C120.64 214.42, 119.87 214.79, 89.25 187.4 M148.75 187.4 C117.85 214.7, 119.49 216.56, 89.25 187.4 M89.25 187.4 C69.49 171.8, 51.94 154.69, 29.75 135 M89.25 187.4 C77.19 176.91, 63.55 165.77, 29.75 135 M29.75 135 C1.41 108.31, -1.22 108.21, 29.75 81 M29.75 135 C2.01 108.64, 0.94 109.34, 29.75 81 M29.75 81 C48.84 60.87, 71.03 44.39, 89.25 27 M29.75 81 C49.87 62.52, 68.74 44.06, 89.25 27 M89.25 27 C119.79 -0.27, 120.39 -1.13, 148.75 27 M89.25 27 C120.3 -1.04, 119.63 -0.1, 148.75 27" stroke="#000000" stroke-width="1" fill="none"></path></g><g transform="translate(746.399963378906 2252.700261235411) rotate(0 144 12.5)"><text x="0" y="18" font-family="Virgil, Segoe UI Emoji" font-size="20px" fill="#000000" text-anchor="start" style="white-space: pre;" direction="ltr">waiting for next round state</text></g><g stroke-linecap="round"><g transform="translate(1219.522210015191 1522.378154979987) rotate(0 -339.138737057168 115.60799804025203)"><path d="M0.89 0.97 C-112.12 39.58, -565.13 192.62, -678.69 230.79 M-0.11 0.43 C-113.14 38.81, -566.17 190.75, -679.16 229.26" stroke="#000000" stroke-width="1" fill="none"></path></g><g transform="translate(1219.522210015191 1522.378154979987) rotate(0 -339.138737057168 115.60799804025203)"><path d="M-654.13 212.03 C-659.78 213.82, -666.9 219.55, -679.38 230.13 M-654.83 210.83 C-663.07 216.38, -671.58 221.62, -678.78 228.98" stroke="#000000" stroke-width="1" fill="none"></path></g><g transform="translate(1219.522210015191 1522.378154979987) rotate(0 -339.138737057168 115.60799804025203)"><path d="M-647.56 231.47 C-654.7 228.5, -663.44 229.43, -679.38 230.13 M-648.26 230.28 C-658.49 229.45, -669.13 228.38, -678.78 228.98" stroke="#000000" stroke-width="1" fill="none"></path></g></g><mask></mask><g transform="translate(689.5220879448789 1602.8638814727328) rotate(342.9594469132808 150.5 12.5)"><text x="0" y="18" font-family="Virgil, Segoe UI Emoji" font-size="20px" fill="#000000" text-anchor="start" style="white-space: pre;" direction="ltr">Every non drawer is a guesser</text></g><g stroke-linecap="round"><g transform="translate(297.73364449386423 2024.8557004450577) rotate(0 493.11109653352713 -74.6103945438714)"><path d="M0.9 0.34 C165.01 -24.64, 821.07 -124.39, 985.32 -149.56" stroke="#000000" stroke-width="1.5" fill="none" stroke-dasharray="1.5 7"></path></g><g transform="translate(297.73364449386423 2024.8557004450577) rotate(0 493.11109653352713 -74.6103945438714)"><path d="M959.57 -137.09 C969.02 -140.59, 976.55 -143.87, 986.37 -147.62" stroke="#000000" stroke-width="1.5" fill="none" stroke-dasharray="1.5 5"></path></g><g transform="translate(297.73364449386423 2024.8557004450577) rotate(0 493.11109653352713 -74.6103945438714)"><path d="M956.47 -157.38 C967.09 -153.66, 975.72 -149.69, 986.37 -147.62" stroke="#000000" stroke-width="1.5" fill="none" stroke-dasharray="1.5 5"></path></g></g><mask></mask><g transform="translate(627.0650915721108 1974.4638570586715) rotate(353.64580293060686 55 12.5)"><text x="0" y="18" font-family="Virgil, Segoe UI Emoji" font-size="20px" fill="#000000" text-anchor="start" style="white-space: pre;" direction="ltr">Depends on</text></g><g transform="translate(1419.9222344292536 1883.0352856300997) rotate(0 69.5 12.5)"><text x="0" y="18" font-family="Virgil, Segoe UI Emoji" font-size="20px" fill="#000000" text-anchor="start" style="white-space: pre;" direction="ltr">Word selected</text></g><g stroke-linecap="round"><g transform="translate(991.3508058578252 2389.1781427729566) rotate(0 418.8896994628576 -356.29294329791196)"><path d="M-0.12 1.16 C125.86 -13.83, 618.74 29.46, 756.38 -89.69 C894.01 -208.84, 814.1 -609.79, 825.69 -713.75 M-1.65 0.73 C124.68 -14.18, 620.93 30.19, 758.69 -88.74 C896.45 -207.68, 813.65 -608.92, 824.91 -712.9" stroke="#000000" stroke-width="1" fill="none"></path></g><g transform="translate(991.3508058578252 2389.1781427729566) rotate(0 418.8896994628576 -356.29294329791196)"><path d="M838.3 -686.45 C830.57 -694.57, 827.09 -703.58, 823.95 -714.16 M837.24 -684.73 C834.35 -693.27, 830.36 -699.72, 825.53 -712.84" stroke="#000000" stroke-width="1" fill="none"></path></g><g transform="translate(991.3508058578252 2389.1781427729566) rotate(0 418.8896994628576 -356.29294329791196)"><path d="M817.8 -685.57 C816.98 -693.97, 820.41 -703.28, 823.95 -714.16 M816.74 -683.85 C819.31 -692.81, 820.77 -699.49, 825.53 -712.84" stroke="#000000" stroke-width="1" fill="none"></path></g></g><mask></mask></svg>